<svg xmlns="http://www.w3.org/2000/svg" xmlns:v="https://svgstorm.com"
viewBox = "0 0 1500 1500"
width="1500"
height="1500">
<g fill="None" fill-opacity="0.0" stroke="#000000" stroke-opacity="0.00" stroke-width="0.3"><path d="
M 0.00 1500.00 
L 1500.00 1500.00
L 1500.00 0.00
L 0.00 0.00
L 0.00 1500.00
M 747.00 629.00 
C 751.00 628.91 754.96 623.97 758.69 627.31 C 762.43 630.64 765.10 631.33 770.00 632.00
C 784.79 634.02 781.14 654.83 767.00 656.00
C 761.42 676.21 724.93 664.69 723.00 646.00
C 721.08 638.49 720.26 628.54 729.00 626.00
C 733.99 624.55 744.41 622.78 747.00 629.00
M 852.00 677.00 
C 857.92 679.46 861.03 683.97 865.92 688.08 C 870.81 692.20 870.07 701.56 872.00 707.00
C 875.95 726.42 875.26 748.57 870.22 767.22 C 865.18 785.87 866.73 804.53 856.00 821.00
C 852.41 826.50 848.13 832.68 844.74 837.74 C 841.36 842.81 832.27 840.89 827.00 846.00
C 826.50 846.48 825.36 847.44 825.00 848.00
C 819.66 856.44 808.16 859.87 799.00 863.00
C 798.66 863.12 797.62 863.78 797.00 864.00
C 790.60 866.29 785.93 871.58 779.77 873.77 C 773.61 875.96 766.10 871.37 759.00 872.00
C 754.01 872.44 747.98 872.56 743.00 872.00
C 724.05 869.88 694.94 859.97 684.00 842.00
C 683.68 841.47 683.35 840.42 683.00 840.00
C 679.83 836.20 675.28 835.28 671.00 834.00 C 666.72 832.73 662.67 827.45 664.78 822.78 C 666.89 818.10 661.28 812.72 660.00 809.00
C 659.85 808.55 660.20 807.40 660.00 807.00
C 657.12 801.12 647.56 784.32 656.00 780.00
C 661.14 777.37 668.33 779.67 674.00 779.00
C 684.54 777.76 690.69 770.19 697.92 762.92 C 705.15 755.65 707.88 745.67 711.93 736.93 C 715.98 728.18 731.38 730.81 737.75 722.75 C 744.11 714.69 752.03 707.70 753.00 697.00
C 753.40 692.56 751.74 686.93 754.00 683.00
C 757.90 676.22 771.18 679.05 775.75 669.75 C 780.33 660.45 785.56 657.80 788.92 646.92 C 792.29 636.05 802.67 642.80 810.25 646.75 C 817.82 650.70 826.30 654.76 833.75 659.25 C 841.19 663.75 845.45 672.91 852.00 677.00
M 700.00 659.00 
C 700.77 661.77 701.52 667.33 703.00 670.00
C 704.06 670.68 704.29 671.07 705.00 672.00
C 707.23 674.91 710.00 677.43 713.00 679.00
C 720.35 682.84 731.06 685.43 731.00 696.00 C 730.93 706.57 728.02 713.28 718.92 718.92 C 709.82 724.56 700.95 714.12 693.00 712.00
C 684.16 709.64 672.00 713.57 664.00 710.00
C 653.72 705.41 658.70 688.21 662.00 681.00
C 665.41 673.54 668.35 666.05 674.00 660.00
C 681.50 651.97 696.04 644.79 700.00 659.00
M 625.00 666.00 
C 625.09 665.59 625.78 664.32 626.00 664.00
C 631.26 656.31 630.49 655.82 640.00 654.00
C 640.79 653.85 642.22 653.28 643.00 653.00
C 657.50 647.80 656.49 667.54 649.23 677.23 C 641.97 686.92 621.90 680.58 625.00 666.00
M 642.00 699.00 
C 649.44 700.56 648.33 714.67 642.75 719.75 C 637.16 724.82 622.70 719.47 625.33 712.33 C 627.96 705.19 635.64 697.67 642.00 699.00
M 694.00 743.00 
C 693.29 747.69 688.17 754.93 686.00 759.00
C 684.12 762.52 679.54 764.77 676.00 766.00
C 671.49 767.56 662.39 768.06 658.00 766.00
C 656.59 765.34 655.19 763.91 654.00 763.00
C 645.74 756.68 647.03 756.79 646.00 747.00
C 645.53 742.60 640.53 733.33 648.70 731.70 C 656.87 730.06 658.36 728.91 667.03 727.03 C 675.69 725.14 695.89 730.51 694.00 743.00 Z"/>
</g>
<g fill="None" fill-opacity="0.0" stroke="#FFFFFF" stroke-opacity="0.87" stroke-width="0.3"><path d="
M 729.00 626.00 
C 732.51 627.43 722.98 631.17 725.03 634.03 C 727.07 636.88 723.07 645.16 723.00 646.00
C 724.93 664.69 761.42 676.21 767.00 656.00
C 781.14 654.83 784.79 634.02 770.00 632.00
C 770.62 631.69 767.93 634.06 768.00 634.00
C 763.01 638.04 760.62 643.83 752.93 642.07 C 745.23 640.32 744.02 628.11 746.00 629.00
C 746.42 629.19 747.00 629.00 747.00 629.00
C 744.41 622.78 733.99 624.55 729.00 626.00 Z"/>
</g>
<g fill="None" fill-opacity="0.0" stroke="#FFFFFF" stroke-opacity="0.53" stroke-width="0.3"><path d="
M 723.00 646.00 
C 723.07 645.16 727.07 636.88 725.03 634.03 C 722.98 631.17 732.51 627.43 729.00 626.00
C 720.26 628.54 721.08 638.49 723.00 646.00 Z"/>
</g>
<g fill="None" fill-opacity="0.0" stroke="#FFFFFF" stroke-opacity="0.36" stroke-width="0.3"><path d="
M 747.00 629.00 
C 747.00 629.00 746.42 629.19 746.00 629.00
C 747.81 634.42 744.48 632.89 750.75 637.25 C 757.02 641.61 763.24 634.64 768.00 634.00
C 767.93 634.06 770.62 631.69 770.00 632.00
C 765.10 631.33 762.43 630.64 758.69 627.31 C 754.96 623.97 751.00 628.91 747.00 629.00 Z"/>
</g>
<g fill="None" fill-opacity="0.0" stroke="#FFFFFF" stroke-opacity="0.72" stroke-width="0.3"><path d="
M 768.00 634.00 
C 763.24 634.64 757.02 641.61 750.75 637.25 C 744.48 632.89 747.81 634.42 746.00 629.00
C 744.02 628.11 745.23 640.32 752.93 642.07 C 760.62 643.83 763.01 638.04 768.00 634.00 Z"/>
</g>
<g fill="None" fill-opacity="0.0" stroke="#FFFFFF" stroke-opacity="0.92" stroke-width="0.3"><path d="
M 754.00 683.00 
C 753.30 686.12 759.42 692.62 756.00 697.00
C 755.00 697.00 754.00 697.00 753.00 697.00
C 752.03 707.70 744.11 714.69 737.75 722.75 C 731.38 730.81 715.98 728.18 711.93 736.93 C 707.88 745.67 705.15 755.65 697.92 762.92 C 690.69 770.19 684.54 777.76 674.00 779.00
C 672.41 779.62 669.09 780.93 666.00 781.00 C 662.91 781.07 657.74 779.57 656.00 780.00
C 647.56 784.32 657.12 801.12 660.00 807.00
C 663.54 806.30 670.16 810.13 675.00 809.00 C 679.84 807.87 682.23 814.47 685.30 816.70 C 688.37 818.93 689.05 827.77 689.00 831.00 C 688.95 834.23 686.00 843.75 684.00 842.00
C 694.94 859.97 724.05 869.88 743.00 872.00
C 742.94 871.97 742.48 869.19 742.00 869.00
C 746.94 870.77 752.67 869.72 758.00 870.00
C 760.24 859.94 763.76 851.60 775.02 849.02 C 786.29 846.45 792.45 858.00 799.00 863.00
C 808.16 859.87 819.66 856.44 825.00 848.00
C 826.47 842.46 816.60 833.80 820.00 826.00 C 823.40 818.20 827.21 812.98 836.00 812.00
C 845.00 810.99 850.50 815.50 856.00 821.00
C 866.73 804.53 865.18 785.87 870.22 767.22 C 875.26 748.57 875.95 726.42 872.00 707.00
C 872.16 707.44 872.00 708.00 872.00 708.00
C 872.00 711.17 872.80 715.65 871.00 718.00
C 871.74 707.38 864.87 717.46 857.98 717.98 C 851.08 718.49 843.78 715.92 840.23 709.77 C 836.68 703.62 834.60 696.52 837.93 689.93 C 841.25 683.33 845.49 680.81 852.00 678.00
C 851.75 677.79 852.00 677.00 852.00 677.00
C 845.45 672.91 841.19 663.75 833.75 659.25 C 826.30 654.76 817.82 650.70 810.25 646.75 C 802.67 642.80 792.29 636.05 788.92 646.92 C 785.56 657.80 780.33 660.45 775.75 669.75 C 771.18 679.05 757.90 676.22 754.00 683.00
M 813.00 662.00 
C 821.33 662.71 826.03 668.88 829.00 676.00
C 831.69 682.45 830.84 687.57 828.00 693.00
C 826.22 695.10 825.18 690.25 824.00 694.00
C 819.56 697.26 815.74 702.94 809.00 701.00
C 809.57 700.06 810.15 699.18 810.00 698.00
C 807.27 697.78 797.76 694.49 797.00 691.00
C 797.14 692.17 798.38 693.63 796.00 694.00
C 791.14 687.70 792.14 678.98 792.00 672.00
C 791.42 668.81 793.37 667.28 795.00 665.00
C 797.68 666.05 805.26 666.50 803.00 662.00
C 806.66 661.42 809.76 663.10 813.00 662.00
M 778.00 741.00 
C 783.36 745.19 785.81 748.09 790.00 754.00
C 785.19 755.56 791.86 762.69 786.00 766.00
C 783.75 767.84 781.78 767.64 779.00 770.00
C 779.13 769.92 782.82 768.56 784.00 768.00
C 787.66 779.30 767.69 783.70 761.00 779.00
C 757.37 778.60 754.46 773.92 753.00 771.00
C 752.83 770.67 752.34 770.01 752.00 770.00
C 746.59 769.79 752.39 755.40 749.00 751.00
C 752.88 748.17 754.92 743.18 760.00 742.00
C 765.24 739.59 772.71 736.87 778.00 741.00
M 840.00 755.00 
C 840.95 757.33 840.26 758.39 840.00 761.00
C 843.10 758.62 843.31 763.99 843.00 766.00
C 842.83 767.57 840.93 773.05 840.00 775.00
C 838.31 778.56 834.75 777.13 834.00 782.00
C 831.56 780.48 827.92 781.59 828.00 785.00
C 821.24 784.70 816.41 784.02 812.00 784.00
C 802.56 779.83 800.99 763.66 805.00 756.00
C 804.77 755.65 805.00 755.00 805.00 755.00
C 809.98 742.32 834.04 740.37 840.00 755.00
M 750.00 793.00 
C 754.09 795.17 757.35 800.34 762.00 800.00
C 763.18 804.12 764.57 808.06 763.00 812.00
C 762.86 814.43 763.67 819.59 763.00 823.00
C 762.72 824.42 762.09 825.50 762.00 827.00
C 757.95 822.92 756.87 830.63 755.00 833.00
C 752.62 829.73 741.10 840.38 736.00 832.00
C 733.34 829.84 730.53 828.86 728.00 827.00
C 721.71 822.37 726.96 816.84 725.00 811.00
C 730.67 810.82 726.78 801.15 732.08 798.08 C 737.39 795.02 744.24 788.38 750.00 793.00 Z"/>
</g>
<g fill="None" fill-opacity="0.0" stroke="#FFFFFF" stroke-opacity="0.86" stroke-width="0.3"><path d="
M 674.00 660.00 
C 673.83 660.78 675.48 662.06 674.00 663.00
C 683.13 659.97 693.72 661.98 698.77 670.23 C 703.82 678.48 704.74 687.69 698.70 695.70 C 692.66 703.71 684.37 705.34 675.77 701.23 C 667.17 697.12 664.85 687.85 662.00 681.00
C 658.70 688.21 653.72 705.41 664.00 710.00
C 669.51 711.56 673.98 709.25 679.01 708.01 C 684.03 706.77 689.24 710.28 693.00 712.00
C 700.95 714.12 709.82 724.56 718.92 718.92 C 728.02 713.28 730.93 706.57 731.00 696.00 C 731.06 685.43 720.35 682.84 713.00 679.00
C 709.94 678.43 709.75 680.05 706.30 677.70 C 702.86 675.34 705.07 672.53 705.00 672.00
C 704.29 671.07 704.06 670.68 703.00 670.00
C 697.68 666.61 700.14 664.14 700.00 659.00
C 696.04 644.79 681.50 651.97 674.00 660.00 Z"/>
</g>
<g fill="None" fill-opacity="0.0" stroke="#FFFFFF" stroke-opacity="0.83" stroke-width="0.3"><path d="
M 643.00 653.00 
C 648.36 662.20 629.36 674.24 625.00 666.00
C 621.90 680.58 641.97 686.92 649.23 677.23 C 656.49 667.54 657.50 647.80 643.00 653.00 Z"/>
</g>
<g fill="None" fill-opacity="0.0" stroke="#FFFFFF" stroke-opacity="0.64" stroke-width="0.3"><path d="
M 640.00 654.00 
C 637.88 657.29 641.44 661.92 636.75 664.75 C 632.06 667.58 629.33 663.41 626.00 664.00
C 625.78 664.32 625.09 665.59 625.00 666.00
C 629.36 674.24 648.36 662.20 643.00 653.00
C 642.22 653.28 640.79 653.85 640.00 654.00 Z"/>
</g>
<g fill="None" fill-opacity="0.0" stroke="#FFFFFF" stroke-opacity="0.35" stroke-width="0.3"><path d="
M 626.00 664.00 
C 629.33 663.41 632.06 667.58 636.75 664.75 C 641.44 661.92 637.88 657.29 640.00 654.00
C 630.49 655.82 631.26 656.31 626.00 664.00 Z"/>
</g>
<g fill="None" fill-opacity="0.0" stroke="#FFFFFF" stroke-opacity="0.53" stroke-width="0.3"><path d="
M 703.00 670.00 
C 701.52 667.33 700.77 661.77 700.00 659.00
C 700.14 664.14 697.68 666.61 703.00 670.00 Z"/>
</g>
<g fill="None" fill-opacity="0.0" stroke="#FFFFFF" stroke-opacity="0.71" stroke-width="0.3"><path d="
M 662.00 681.00 
C 664.85 687.85 667.17 697.12 675.77 701.23 C 684.37 705.34 692.66 703.71 698.70 695.70 C 704.74 687.69 703.82 678.48 698.77 670.23 C 693.72 661.98 683.13 659.97 674.00 663.00
C 675.48 662.06 673.83 660.78 674.00 660.00
C 668.35 666.05 665.41 673.54 662.00 681.00
M 689.00 665.00 
C 708.86 671.28 698.87 708.27 677.98 700.02 C 657.08 691.78 666.89 658.01 689.00 665.00 Z"/>
</g>
<g fill="None" fill-opacity="0.0" stroke="#FFFFFF" stroke-opacity="0.21" stroke-width="0.3"><path d="
M 792.00 672.00 
C 792.05 672.15 793.00 672.00 793.00 672.00
C 797.31 674.86 798.52 668.52 803.01 668.01 C 807.50 667.50 811.10 668.48 816.00 669.00
C 815.95 666.32 812.75 664.86 813.00 662.00
C 809.76 663.10 806.66 661.42 803.00 662.00
C 805.26 666.50 797.68 666.05 795.00 665.00
C 793.37 667.28 791.42 668.81 792.00 672.00 Z"/>
</g>
<g fill="None" fill-opacity="0.0" stroke="#FFFFFF" stroke-opacity="0.42" stroke-width="0.3"><path d="
M 793.00 672.00 
C 795.99 675.38 796.54 687.00 797.00 691.00
C 796.72 689.73 797.21 688.29 797.00 687.00
C 802.56 690.29 808.09 696.57 817.00 694.00
C 818.05 698.48 812.94 698.24 810.00 698.00
C 810.15 699.18 809.57 700.06 809.00 701.00
C 815.74 702.94 819.56 697.26 824.00 694.00
C 822.15 693.52 819.71 692.51 820.00 690.00
C 823.25 686.47 826.32 682.34 821.75 677.25 C 817.17 672.17 825.83 671.21 829.00 676.00
C 826.03 668.88 821.33 662.71 813.00 662.00
C 812.75 664.86 815.95 666.32 816.00 669.00
C 811.10 668.48 807.50 667.50 803.01 668.01 C 798.52 668.52 797.31 674.86 793.00 672.00 Z"/>
</g>
<g fill="None" fill-opacity="0.0" stroke="#FFFFFF" stroke-opacity="0.42" stroke-width="0.3"><path d="
M 689.00 665.00 
C 666.89 658.01 657.08 691.78 677.98 700.02 C 698.87 708.27 708.86 671.28 689.00 665.00 Z"/>
</g>
<g fill="None" fill-opacity="0.0" stroke="#FFFFFF" stroke-opacity="0.49" stroke-width="0.3"><path d="
M 713.00 679.00 
C 710.00 677.43 707.23 674.91 705.00 672.00
C 705.07 672.53 702.86 675.34 706.30 677.70 C 709.75 680.05 709.94 678.43 713.00 679.00 Z"/>
</g>
<g fill="None" fill-opacity="0.0" stroke="#FFFFFF" stroke-opacity="0.65" stroke-width="0.3"><path d="
M 797.00 691.00 
C 796.54 687.00 795.99 675.38 793.00 672.00
C 793.00 672.00 792.05 672.15 792.00 672.00
C 792.14 678.98 791.14 687.70 796.00 694.00
C 798.38 693.63 797.14 692.17 797.00 691.00 Z"/>
</g>
<g fill="None" fill-opacity="0.0" stroke="#FFFFFF" stroke-opacity="0.27" stroke-width="0.3"><path d="
M 824.00 694.00 
C 825.18 690.25 826.22 695.10 828.00 693.00
C 830.84 687.57 831.69 682.45 829.00 676.00
C 825.83 671.21 817.17 672.17 821.75 677.25 C 826.32 682.34 823.25 686.47 820.00 690.00
C 819.71 692.51 822.15 693.52 824.00 694.00 Z"/>
</g>
<g fill="None" fill-opacity="0.0" stroke="#FFFFFF" stroke-opacity="0.39" stroke-width="0.3"><path d="
M 852.00 678.00 
C 852.86 678.73 853.55 679.85 854.00 681.00
C 838.58 681.41 834.53 702.70 845.00 712.00
C 847.90 709.82 853.72 715.08 859.00 714.00 C 864.28 712.92 867.18 706.76 872.00 708.00
C 872.00 708.00 872.16 707.44 872.00 707.00
C 870.07 701.56 870.81 692.20 865.92 688.08 C 861.03 683.97 857.92 679.46 852.00 677.00
C 852.00 677.00 851.75 677.79 852.00 678.00 Z"/>
</g>
<g fill="None" fill-opacity="0.0" stroke="#FFFFFF" stroke-opacity="0.71" stroke-width="0.3"><path d="
M 872.00 708.00 
C 867.18 706.76 864.28 712.92 859.00 714.00 C 853.72 715.08 847.90 709.82 845.00 712.00
C 834.53 702.70 838.58 681.41 854.00 681.00
C 853.55 679.85 852.86 678.73 852.00 678.00
C 845.49 680.81 841.25 683.33 837.93 689.93 C 834.60 696.52 836.68 703.62 840.23 709.77 C 843.78 715.92 851.08 718.49 857.98 717.98 C 864.87 717.46 871.74 707.38 871.00 718.00
C 872.80 715.65 872.00 711.17 872.00 708.00 Z"/>
</g>
<g fill="None" fill-opacity="0.0" stroke="#FFFFFF" stroke-opacity="0.32" stroke-width="0.3"><path d="
M 753.00 697.00 
C 754.00 697.00 755.00 697.00 756.00 697.00
C 759.42 692.62 753.30 686.12 754.00 683.00
C 751.74 686.93 753.40 692.56 753.00 697.00 Z"/>
</g>
<g fill="None" fill-opacity="0.0" stroke="#FFFFFF" stroke-opacity="0.09" stroke-width="0.3"><path d="
M 797.00 691.00 
C 797.76 694.49 807.27 697.78 810.00 698.00
C 812.94 698.24 818.05 698.48 817.00 694.00
C 808.09 696.57 802.56 690.29 797.00 687.00
C 797.21 688.29 796.72 689.73 797.00 691.00 Z"/>
</g>
<g fill="None" fill-opacity="0.0" stroke="#FFFFFF" stroke-opacity="0.77" stroke-width="0.3"><path d="
M 642.00 699.00 
C 635.64 697.67 627.96 705.19 625.33 712.33 C 622.70 719.47 637.16 724.82 642.75 719.75 C 648.33 714.67 649.44 700.56 642.00 699.00 Z"/>
</g>
<g fill="None" fill-opacity="0.0" stroke="#FFFFFF" stroke-opacity="0.35" stroke-width="0.3"><path d="
M 664.00 710.00 
C 672.00 713.57 684.16 709.64 693.00 712.00
C 689.24 710.28 684.03 706.77 679.01 708.01 C 673.98 709.25 669.51 711.56 664.00 710.00 Z"/>
</g>
<g fill="None" fill-opacity="0.0" stroke="#FFFFFF" stroke-opacity="0.89" stroke-width="0.3"><path d="
M 646.00 747.00 
C 651.79 737.74 665.84 759.16 657.00 764.00
C 655.88 763.98 654.67 761.03 654.00 763.00
C 655.19 763.91 656.59 765.34 658.00 766.00
C 659.81 766.39 664.52 764.94 667.00 765.00 C 669.48 765.06 673.96 766.23 676.00 766.00
C 679.54 764.77 684.12 762.52 686.00 759.00
C 678.20 752.11 692.94 748.94 690.00 743.00
C 691.33 743.00 692.67 743.00 694.00 743.00
C 695.89 730.51 675.69 725.14 667.03 727.03 C 658.36 728.91 656.87 730.06 648.70 731.70 C 640.53 733.33 645.53 742.60 646.00 747.00 Z"/>
</g>
<g fill="None" fill-opacity="0.0" stroke="#FFFFFF" stroke-opacity="0.40" stroke-width="0.3"><path d="
M 760.00 742.00 
C 767.19 743.38 758.68 749.61 755.75 752.75 C 752.81 755.88 754.10 765.88 757.00 769.00
C 755.51 771.38 753.03 767.65 752.00 770.00
C 752.34 770.01 752.83 770.67 753.00 771.00
C 756.70 771.26 761.22 773.60 761.00 778.00
C 762.43 774.51 769.11 776.79 771.74 774.74 C 774.38 772.70 776.36 772.23 779.00 770.00
C 781.78 767.64 783.75 767.84 786.00 766.00
C 785.00 766.05 784.00 765.96 783.00 766.00
C 782.64 760.84 785.84 757.83 784.00 753.00
C 779.02 753.61 776.76 744.37 772.00 743.00
C 772.81 739.03 776.75 743.17 778.00 741.00
C 772.71 736.87 765.24 739.59 760.00 742.00 Z"/>
</g>
<g fill="None" fill-opacity="0.0" stroke="#FFFFFF" stroke-opacity="0.17" stroke-width="0.3"><path d="
M 786.00 766.00 
C 791.86 762.69 785.19 755.56 790.00 754.00
C 785.81 748.09 783.36 745.19 778.00 741.00
C 776.75 743.17 772.81 739.03 772.00 743.00
C 776.76 744.37 779.02 753.61 784.00 753.00
C 785.84 757.83 782.64 760.84 783.00 766.00
C 784.00 765.96 785.00 766.05 786.00 766.00 Z"/>
</g>
<g fill="None" fill-opacity="0.0" stroke="#FFFFFF" stroke-opacity="0.18" stroke-width="0.3"><path d="
M 752.00 770.00 
C 753.03 767.65 755.51 771.38 757.00 769.00
C 754.10 765.88 752.81 755.88 755.75 752.75 C 758.68 749.61 767.19 743.38 760.00 742.00
C 754.92 743.18 752.88 748.17 749.00 751.00
C 752.39 755.40 746.59 769.79 752.00 770.00 Z"/>
</g>
<g fill="None" fill-opacity="0.0" stroke="#FFFFFF" stroke-opacity="0.34" stroke-width="0.3"><path d="
M 686.00 759.00 
C 688.17 754.93 693.29 747.69 694.00 743.00
C 692.67 743.00 691.33 743.00 690.00 743.00
C 692.94 748.94 678.20 752.11 686.00 759.00 Z"/>
</g>
<g fill="None" fill-opacity="0.0" stroke="#FFFFFF" stroke-opacity="0.47" stroke-width="0.3"><path d="
M 646.00 747.00 
C 647.03 756.79 645.74 756.68 654.00 763.00
C 654.67 761.03 655.88 763.98 657.00 764.00
C 665.84 759.16 651.79 737.74 646.00 747.00 Z"/>
</g>
<g fill="None" fill-opacity="0.0" stroke="#FFFFFF" stroke-opacity="0.71" stroke-width="0.3"><path d="
M 805.00 755.00 
C 808.35 754.26 815.58 746.39 819.00 750.00
C 819.01 748.73 818.72 748.29 817.00 747.00
C 820.91 745.31 825.34 746.00 829.00 748.00
C 831.56 749.27 838.44 752.44 840.00 755.00
C 834.04 740.37 809.98 742.32 805.00 755.00 Z"/>
</g>
<g fill="None" fill-opacity="0.0" stroke="#FFFFFF" stroke-opacity="0.42" stroke-width="0.3"><path d="
M 819.00 750.00 
C 818.99 751.28 819.58 751.86 820.00 753.00
C 811.89 752.05 810.26 760.70 806.00 765.00
C 803.22 762.37 806.85 758.00 805.00 756.00
C 800.99 763.66 802.56 779.83 812.00 784.00
C 809.98 782.20 809.96 777.64 810.00 775.00
C 817.34 781.45 833.53 782.20 835.00 770.00
C 839.14 768.72 838.35 773.41 840.00 775.00
C 840.93 773.05 842.83 767.57 843.00 766.00
C 841.91 767.84 839.57 765.15 838.00 766.00
C 839.64 761.16 835.00 759.55 834.00 756.00
C 827.96 757.68 820.96 750.41 829.00 748.00
C 825.34 746.00 820.91 745.31 817.00 747.00
C 818.72 748.29 819.01 748.73 819.00 750.00 Z"/>
</g>
<g fill="None" fill-opacity="0.0" stroke="#FFFFFF" stroke-opacity="0.20" stroke-width="0.3"><path d="
M 843.00 766.00 
C 843.31 763.99 843.10 758.62 840.00 761.00
C 840.26 758.39 840.95 757.33 840.00 755.00
C 838.44 752.44 831.56 749.27 829.00 748.00
C 820.96 750.41 827.96 757.68 834.00 756.00
C 835.00 759.55 839.64 761.16 838.00 766.00
C 839.57 765.15 841.91 767.84 843.00 766.00 Z"/>
</g>
<g fill="None" fill-opacity="0.0" stroke="#FFFFFF" stroke-opacity="0.09" stroke-width="0.3"><path d="
M 805.00 755.00 
C 805.00 755.00 804.77 755.65 805.00 756.00
C 806.85 758.00 803.22 762.37 806.00 765.00
C 810.26 760.70 811.89 752.05 820.00 753.00
C 819.58 751.86 818.99 751.28 819.00 750.00
C 815.58 746.39 808.35 754.26 805.00 755.00 Z"/>
</g>
<g fill="None" fill-opacity="0.0" stroke="#FFFFFF" stroke-opacity="0.43" stroke-width="0.3"><path d="
M 658.00 766.00 
C 662.39 768.06 671.49 767.56 676.00 766.00
C 673.96 766.23 669.48 765.06 667.00 765.00 C 664.52 764.94 659.81 766.39 658.00 766.00 Z"/>
</g>
<g fill="None" fill-opacity="0.0" stroke="#FFFFFF" stroke-opacity="0.22" stroke-width="0.3"><path d="
M 779.00 770.00 
C 776.36 772.23 774.38 772.70 771.74 774.74 C 769.11 776.79 762.43 774.51 761.00 778.00
C 760.98 778.50 761.00 779.00 761.00 779.00
C 767.69 783.70 787.66 779.30 784.00 768.00
C 782.82 768.56 779.13 769.92 779.00 770.00 Z"/>
</g>
<g fill="None" fill-opacity="0.0" stroke="#FFFFFF" stroke-opacity="0.13" stroke-width="0.3"><path d="
M 812.00 784.00 
C 816.41 784.02 821.24 784.70 828.00 785.00
C 827.92 781.59 831.56 780.48 834.00 782.00
C 834.75 777.13 838.31 778.56 840.00 775.00
C 838.35 773.41 839.14 768.72 835.00 770.00
C 833.53 782.20 817.34 781.45 810.00 775.00
C 809.96 777.64 809.98 782.20 812.00 784.00 Z"/>
</g>
<g fill="None" fill-opacity="0.0" stroke="#FFFFFF" stroke-opacity="0.72" stroke-width="0.3"><path d="
M 761.00 779.00 
C 761.00 779.00 760.98 778.50 761.00 778.00
C 761.22 773.60 756.70 771.26 753.00 771.00
C 754.46 773.92 757.37 778.60 761.00 779.00 Z"/>
</g>
<g fill="None" fill-opacity="0.0" stroke="#FFFFFF" stroke-opacity="0.38" stroke-width="0.3"><path d="
M 656.00 780.00 
C 657.74 779.57 662.91 781.07 666.00 781.00 C 669.09 780.93 672.41 779.62 674.00 779.00
C 668.33 779.67 661.14 777.37 656.00 780.00 Z"/>
</g>
<g fill="None" fill-opacity="0.0" stroke="#FFFFFF" stroke-opacity="0.31" stroke-width="0.3"><path d="
M 728.00 827.00 
C 728.25 827.04 730.98 824.98 732.00 826.00
C 727.82 820.39 731.62 813.65 731.00 808.00
C 734.25 807.58 742.92 798.98 737.00 797.00
C 739.91 797.59 742.06 795.41 745.00 796.00
C 744.84 794.69 745.13 793.32 745.00 792.00
C 746.83 791.77 748.48 792.07 750.00 793.00
C 744.24 788.38 737.39 795.02 732.08 798.08 C 726.78 801.15 730.67 810.82 725.00 811.00
C 726.96 816.84 721.71 822.37 728.00 827.00 Z"/>
</g>
<g fill="None" fill-opacity="0.0" stroke="#FFFFFF" stroke-opacity="0.17" stroke-width="0.3"><path d="
M 745.00 796.00 
C 745.86 796.10 748.71 797.89 749.75 799.25 C 750.80 800.61 754.93 799.62 755.25 801.76 C 755.57 803.90 761.33 804.17 759.75 807.25 C 758.18 810.32 762.20 810.75 763.00 812.00
C 764.57 808.06 763.18 804.12 762.00 800.00
C 757.35 800.34 754.09 795.17 750.00 793.00
C 748.48 792.07 746.83 791.77 745.00 792.00
C 745.13 793.32 744.84 794.69 745.00 796.00 Z"/>
</g>
<g fill="None" fill-opacity="0.0" stroke="#FFFFFF" stroke-opacity="0.40" stroke-width="0.3"><path d="
M 728.00 827.00 
C 730.53 828.86 733.34 829.84 736.00 832.00
C 735.74 830.72 736.20 829.29 736.00 828.00
C 741.29 827.82 747.33 828.58 752.22 827.22 C 757.11 825.86 755.26 819.83 761.00 820.00
C 760.89 821.70 760.62 824.84 763.00 823.00
C 763.67 819.59 762.86 814.43 763.00 812.00
C 762.20 810.75 758.18 810.32 759.75 807.25 C 761.33 804.17 755.57 803.90 755.25 801.76 C 754.93 799.62 750.80 800.61 749.75 799.25 C 748.71 797.89 745.86 796.10 745.00 796.00
C 742.06 795.41 739.91 797.59 737.00 797.00
C 742.92 798.98 734.25 807.58 731.00 808.00
C 731.62 813.65 727.82 820.39 732.00 826.00
C 730.98 824.98 728.25 827.04 728.00 827.00 Z"/>
</g>
<g fill="None" fill-opacity="0.0" stroke="#FFFFFF" stroke-opacity="0.68" stroke-width="0.3"><path d="
M 660.00 809.00 
C 666.09 813.69 673.18 811.87 680.75 817.25 C 688.31 822.63 681.64 834.79 683.00 840.00
C 683.35 840.42 683.68 841.47 684.00 842.00
C 686.00 843.75 688.95 834.23 689.00 831.00 C 689.05 827.77 688.37 818.93 685.30 816.70 C 682.23 814.47 679.84 807.87 675.00 809.00 C 670.16 810.13 663.54 806.30 660.00 807.00
C 660.20 807.40 659.85 808.55 660.00 809.00 Z"/>
</g>
<g fill="None" fill-opacity="0.0" stroke="#FFFFFF" stroke-opacity="0.36" stroke-width="0.3"><path d="
M 683.00 840.00 
C 681.64 834.79 688.31 822.63 680.75 817.25 C 673.18 811.87 666.09 813.69 660.00 809.00
C 661.28 812.72 666.89 818.10 664.78 822.78 C 662.67 827.45 666.72 832.73 671.00 834.00 C 675.28 835.28 679.83 836.20 683.00 840.00 Z"/>
</g>
<g fill="None" fill-opacity="0.0" stroke="#FFFFFF" stroke-opacity="0.64" stroke-width="0.3"><path d="
M 825.00 848.00 
C 825.36 847.44 826.50 846.48 827.00 846.00
C 829.26 841.50 818.88 831.38 823.78 824.78 C 828.68 818.18 832.48 812.37 842.00 814.00
C 840.97 811.63 836.96 814.46 836.00 812.00
C 827.21 812.98 823.40 818.20 820.00 826.00 C 816.60 833.80 826.47 842.46 825.00 848.00
M 834.00 813.00 
C 834.74 813.74 833.18 812.18 834.00 813.00 Z"/>
</g>
<g fill="None" fill-opacity="0.0" stroke="#FFFFFF" stroke-opacity="0.40" stroke-width="0.3"><path d="
M 827.00 846.00 
C 832.27 840.89 841.36 842.81 844.74 837.74 C 848.13 832.68 852.41 826.50 856.00 821.00
C 850.50 815.50 845.00 810.99 836.00 812.00
C 836.96 814.46 840.97 811.63 842.00 814.00
C 832.48 812.37 828.68 818.18 823.78 824.78 C 818.88 831.38 829.26 841.50 827.00 846.00 Z"/>
</g>
<g fill="None" fill-opacity="0.0" stroke="#FFFFFF" stroke-opacity="0.67" stroke-width="0.3"><path d="
M 834.00 813.00 
C 833.18 812.18 834.74 813.74 834.00 813.00 Z"/>
</g>
<g fill="None" fill-opacity="0.0" stroke="#FFFFFF" stroke-opacity="0.22" stroke-width="0.3"><path d="
M 736.00 832.00 
C 741.10 840.38 752.62 829.73 755.00 833.00
C 756.87 830.63 757.95 822.92 762.00 827.00
C 762.09 825.50 762.72 824.42 763.00 823.00
C 760.62 824.84 760.89 821.70 761.00 820.00
C 755.26 819.83 757.11 825.86 752.22 827.22 C 747.33 828.58 741.29 827.82 736.00 828.00
C 736.20 829.29 735.74 830.72 736.00 832.00 Z"/>
</g>
<g fill="None" fill-opacity="0.0" stroke="#FFFFFF" stroke-opacity="0.65" stroke-width="0.3"><path d="
M 743.00 872.00 
C 747.98 872.56 754.01 872.44 759.00 872.00
C 760.97 867.96 762.71 862.59 766.30 857.30 C 769.89 852.02 778.81 851.26 784.68 851.34 C 790.54 851.41 792.61 863.23 797.00 864.00
C 797.62 863.78 798.66 863.12 799.00 863.00
C 792.45 858.00 786.29 846.45 775.02 849.02 C 763.76 851.60 760.24 859.94 758.00 870.00
C 752.67 869.72 746.94 870.77 742.00 869.00
C 742.48 869.19 742.94 871.97 743.00 872.00
M 781.00 850.00 
C 774.89 852.91 772.68 848.79 781.00 850.00 Z"/>
</g>
<g fill="None" fill-opacity="0.0" stroke="#FFFFFF" stroke-opacity="0.70" stroke-width="0.3"><path d="
M 781.00 850.00 
C 772.68 848.79 774.89 852.91 781.00 850.00 Z"/>
</g>
<g fill="None" fill-opacity="0.0" stroke="#FFFFFF" stroke-opacity="0.39" stroke-width="0.3"><path d="
M 759.00 872.00 
C 766.10 871.37 773.61 875.96 779.77 873.77 C 785.93 871.58 790.60 866.29 797.00 864.00
C 792.61 863.23 790.54 851.41 784.68 851.34 C 778.81 851.26 769.89 852.02 766.30 857.30 C 762.71 862.59 760.97 867.96 759.00 872.00 Z"/>
</g>
<g fill="#000000" fill-opacity="0.00" stroke="None">
<path d="
M 0.00 1500.00 
L 1500.00 1500.00
L 1500.00 0.00
L 0.00 0.00
L 0.00 1500.00
M 747.00 629.00 
C 751.00 628.91 754.96 623.97 758.69 627.31 C 762.43 630.64 765.10 631.33 770.00 632.00
C 784.79 634.02 781.14 654.83 767.00 656.00
C 761.42 676.21 724.93 664.69 723.00 646.00
C 721.08 638.49 720.26 628.54 729.00 626.00
C 733.99 624.55 744.41 622.78 747.00 629.00
M 852.00 677.00 
C 857.92 679.46 861.03 683.97 865.92 688.08 C 870.81 692.20 870.07 701.56 872.00 707.00
C 875.95 726.42 875.26 748.57 870.22 767.22 C 865.18 785.87 866.73 804.53 856.00 821.00
C 852.41 826.50 848.13 832.68 844.74 837.74 C 841.36 842.81 832.27 840.89 827.00 846.00
C 826.50 846.48 825.36 847.44 825.00 848.00
C 819.66 856.44 808.16 859.87 799.00 863.00
C 798.66 863.12 797.62 863.78 797.00 864.00
C 790.60 866.29 785.93 871.58 779.77 873.77 C 773.61 875.96 766.10 871.37 759.00 872.00
C 754.01 872.44 747.98 872.56 743.00 872.00
C 724.05 869.88 694.94 859.97 684.00 842.00
C 683.68 841.47 683.35 840.42 683.00 840.00
C 679.83 836.20 675.28 835.28 671.00 834.00 C 666.72 832.73 662.67 827.45 664.78 822.78 C 666.89 818.10 661.28 812.72 660.00 809.00
C 659.85 808.55 660.20 807.40 660.00 807.00
C 657.12 801.12 647.56 784.32 656.00 780.00
C 661.14 777.37 668.33 779.67 674.00 779.00
C 684.54 777.76 690.69 770.19 697.92 762.92 C 705.15 755.65 707.88 745.67 711.93 736.93 C 715.98 728.18 731.38 730.81 737.75 722.75 C 744.11 714.69 752.03 707.70 753.00 697.00
C 753.40 692.56 751.74 686.93 754.00 683.00
C 757.90 676.22 771.18 679.05 775.75 669.75 C 780.33 660.45 785.56 657.80 788.92 646.92 C 792.29 636.05 802.67 642.80 810.25 646.75 C 817.82 650.70 826.30 654.76 833.75 659.25 C 841.19 663.75 845.45 672.91 852.00 677.00
M 700.00 659.00 
C 700.77 661.77 701.52 667.33 703.00 670.00
C 704.06 670.68 704.29 671.07 705.00 672.00
C 707.23 674.91 710.00 677.43 713.00 679.00
C 720.35 682.84 731.06 685.43 731.00 696.00 C 730.93 706.57 728.02 713.28 718.92 718.92 C 709.82 724.56 700.95 714.12 693.00 712.00
C 684.16 709.64 672.00 713.57 664.00 710.00
C 653.72 705.41 658.70 688.21 662.00 681.00
C 665.41 673.54 668.35 666.05 674.00 660.00
C 681.50 651.97 696.04 644.79 700.00 659.00
M 625.00 666.00 
C 625.09 665.59 625.78 664.32 626.00 664.00
C 631.26 656.31 630.49 655.82 640.00 654.00
C 640.79 653.85 642.22 653.28 643.00 653.00
C 657.50 647.80 656.49 667.54 649.23 677.23 C 641.97 686.92 621.90 680.58 625.00 666.00
M 642.00 699.00 
C 649.44 700.56 648.33 714.67 642.75 719.75 C 637.16 724.82 622.70 719.47 625.33 712.33 C 627.96 705.19 635.64 697.67 642.00 699.00
M 694.00 743.00 
C 693.29 747.69 688.17 754.93 686.00 759.00
C 684.12 762.52 679.54 764.77 676.00 766.00
C 671.49 767.56 662.39 768.06 658.00 766.00
C 656.59 765.34 655.19 763.91 654.00 763.00
C 645.74 756.68 647.03 756.79 646.00 747.00
C 645.53 742.60 640.53 733.33 648.70 731.70 C 656.87 730.06 658.36 728.91 667.03 727.03 C 675.69 725.14 695.89 730.51 694.00 743.00 Z"/>
</g>
<g fill="#FFFFFF" fill-opacity="0.87" stroke="None">
<path d="
M 729.00 626.00 
C 732.51 627.43 722.98 631.17 725.03 634.03 C 727.07 636.88 723.07 645.16 723.00 646.00
C 724.93 664.69 761.42 676.21 767.00 656.00
C 781.14 654.83 784.79 634.02 770.00 632.00
C 770.62 631.69 767.93 634.06 768.00 634.00
C 763.01 638.04 760.62 643.83 752.93 642.07 C 745.23 640.32 744.02 628.11 746.00 629.00
C 746.42 629.19 747.00 629.00 747.00 629.00
C 744.41 622.78 733.99 624.55 729.00 626.00 Z"/>
</g>
<g fill="#FFFFFF" fill-opacity="0.53" stroke="None">
<path d="
M 723.00 646.00 
C 723.07 645.16 727.07 636.88 725.03 634.03 C 722.98 631.17 732.51 627.43 729.00 626.00
C 720.26 628.54 721.08 638.49 723.00 646.00 Z"/>
</g>
<g fill="#FFFFFF" fill-opacity="0.36" stroke="None">
<path d="
M 747.00 629.00 
C 747.00 629.00 746.42 629.19 746.00 629.00
C 747.81 634.42 744.48 632.89 750.75 637.25 C 757.02 641.61 763.24 634.64 768.00 634.00
C 767.93 634.06 770.62 631.69 770.00 632.00
C 765.10 631.33 762.43 630.64 758.69 627.31 C 754.96 623.97 751.00 628.91 747.00 629.00 Z"/>
</g>
<g fill="#FFFFFF" fill-opacity="0.72" stroke="None">
<path d="
M 768.00 634.00 
C 763.24 634.64 757.02 641.61 750.75 637.25 C 744.48 632.89 747.81 634.42 746.00 629.00
C 744.02 628.11 745.23 640.32 752.93 642.07 C 760.62 643.83 763.01 638.04 768.00 634.00 Z"/>
</g>
<g fill="#FFFFFF" fill-opacity="0.92" stroke="None">
<path d="
M 754.00 683.00 
C 753.30 686.12 759.42 692.62 756.00 697.00
C 755.00 697.00 754.00 697.00 753.00 697.00
C 752.03 707.70 744.11 714.69 737.75 722.75 C 731.38 730.81 715.98 728.18 711.93 736.93 C 707.88 745.67 705.15 755.65 697.92 762.92 C 690.69 770.19 684.54 777.76 674.00 779.00
C 672.41 779.62 669.09 780.93 666.00 781.00 C 662.91 781.07 657.74 779.57 656.00 780.00
C 647.56 784.32 657.12 801.12 660.00 807.00
C 663.54 806.30 670.16 810.13 675.00 809.00 C 679.84 807.87 682.23 814.47 685.30 816.70 C 688.37 818.93 689.05 827.77 689.00 831.00 C 688.95 834.23 686.00 843.75 684.00 842.00
C 694.94 859.97 724.05 869.88 743.00 872.00
C 742.94 871.97 742.48 869.19 742.00 869.00
C 746.94 870.77 752.67 869.72 758.00 870.00
C 760.24 859.94 763.76 851.60 775.02 849.02 C 786.29 846.45 792.45 858.00 799.00 863.00
C 808.16 859.87 819.66 856.44 825.00 848.00
C 826.47 842.46 816.60 833.80 820.00 826.00 C 823.40 818.20 827.21 812.98 836.00 812.00
C 845.00 810.99 850.50 815.50 856.00 821.00
C 866.73 804.53 865.18 785.87 870.22 767.22 C 875.26 748.57 875.95 726.42 872.00 707.00
C 872.16 707.44 872.00 708.00 872.00 708.00
C 872.00 711.17 872.80 715.65 871.00 718.00
C 871.74 707.38 864.87 717.46 857.98 717.98 C 851.08 718.49 843.78 715.92 840.23 709.77 C 836.68 703.62 834.60 696.52 837.93 689.93 C 841.25 683.33 845.49 680.81 852.00 678.00
C 851.75 677.79 852.00 677.00 852.00 677.00
C 845.45 672.91 841.19 663.75 833.75 659.25 C 826.30 654.76 817.82 650.70 810.25 646.75 C 802.67 642.80 792.29 636.05 788.92 646.92 C 785.56 657.80 780.33 660.45 775.75 669.75 C 771.18 679.05 757.90 676.22 754.00 683.00
M 813.00 662.00 
C 821.33 662.71 826.03 668.88 829.00 676.00
C 831.69 682.45 830.84 687.57 828.00 693.00
C 826.22 695.10 825.18 690.25 824.00 694.00
C 819.56 697.26 815.74 702.94 809.00 701.00
C 809.57 700.06 810.15 699.18 810.00 698.00
C 807.27 697.78 797.76 694.49 797.00 691.00
C 797.14 692.17 798.38 693.63 796.00 694.00
C 791.14 687.70 792.14 678.98 792.00 672.00
C 791.42 668.81 793.37 667.28 795.00 665.00
C 797.68 666.05 805.26 666.50 803.00 662.00
C 806.66 661.42 809.76 663.10 813.00 662.00
M 778.00 741.00 
C 783.36 745.19 785.81 748.09 790.00 754.00
C 785.19 755.56 791.86 762.69 786.00 766.00
C 783.75 767.84 781.78 767.64 779.00 770.00
C 779.13 769.92 782.82 768.56 784.00 768.00
C 787.66 779.30 767.69 783.70 761.00 779.00
C 757.37 778.60 754.46 773.92 753.00 771.00
C 752.83 770.67 752.34 770.01 752.00 770.00
C 746.59 769.79 752.39 755.40 749.00 751.00
C 752.88 748.17 754.92 743.18 760.00 742.00
C 765.24 739.59 772.71 736.87 778.00 741.00
M 840.00 755.00 
C 840.95 757.33 840.26 758.39 840.00 761.00
C 843.10 758.62 843.31 763.99 843.00 766.00
C 842.83 767.57 840.93 773.05 840.00 775.00
C 838.31 778.56 834.75 777.13 834.00 782.00
C 831.56 780.48 827.92 781.59 828.00 785.00
C 821.24 784.70 816.41 784.02 812.00 784.00
C 802.56 779.83 800.99 763.66 805.00 756.00
C 804.77 755.65 805.00 755.00 805.00 755.00
C 809.98 742.32 834.04 740.37 840.00 755.00
M 750.00 793.00 
C 754.09 795.17 757.35 800.34 762.00 800.00
C 763.18 804.12 764.57 808.06 763.00 812.00
C 762.86 814.43 763.67 819.59 763.00 823.00
C 762.72 824.42 762.09 825.50 762.00 827.00
C 757.95 822.92 756.87 830.63 755.00 833.00
C 752.62 829.73 741.10 840.38 736.00 832.00
C 733.34 829.84 730.53 828.86 728.00 827.00
C 721.71 822.37 726.96 816.84 725.00 811.00
C 730.67 810.82 726.78 801.15 732.08 798.08 C 737.39 795.02 744.24 788.38 750.00 793.00 Z"/>
</g>
<g fill="#FFFFFF" fill-opacity="0.86" stroke="None">
<path d="
M 674.00 660.00 
C 673.83 660.78 675.48 662.06 674.00 663.00
C 683.13 659.97 693.72 661.98 698.77 670.23 C 703.82 678.48 704.74 687.69 698.70 695.70 C 692.66 703.71 684.37 705.34 675.77 701.23 C 667.17 697.12 664.85 687.85 662.00 681.00
C 658.70 688.21 653.72 705.41 664.00 710.00
C 669.51 711.56 673.98 709.25 679.01 708.01 C 684.03 706.77 689.24 710.28 693.00 712.00
C 700.95 714.12 709.82 724.56 718.92 718.92 C 728.02 713.28 730.93 706.57 731.00 696.00 C 731.06 685.43 720.35 682.84 713.00 679.00
C 709.94 678.43 709.75 680.05 706.30 677.70 C 702.86 675.34 705.07 672.53 705.00 672.00
C 704.29 671.07 704.06 670.68 703.00 670.00
C 697.68 666.61 700.14 664.14 700.00 659.00
C 696.04 644.79 681.50 651.97 674.00 660.00 Z"/>
</g>
<g fill="#FFFFFF" fill-opacity="0.83" stroke="None">
<path d="
M 643.00 653.00 
C 648.36 662.20 629.36 674.24 625.00 666.00
C 621.90 680.58 641.97 686.92 649.23 677.23 C 656.49 667.54 657.50 647.80 643.00 653.00 Z"/>
</g>
<g fill="#FFFFFF" fill-opacity="0.64" stroke="None">
<path d="
M 640.00 654.00 
C 637.88 657.29 641.44 661.92 636.75 664.75 C 632.06 667.58 629.33 663.41 626.00 664.00
C 625.78 664.32 625.09 665.59 625.00 666.00
C 629.36 674.24 648.36 662.20 643.00 653.00
C 642.22 653.28 640.79 653.85 640.00 654.00 Z"/>
</g>
<g fill="#FFFFFF" fill-opacity="0.35" stroke="None">
<path d="
M 626.00 664.00 
C 629.33 663.41 632.06 667.58 636.75 664.75 C 641.44 661.92 637.88 657.29 640.00 654.00
C 630.49 655.82 631.26 656.31 626.00 664.00 Z"/>
</g>
<g fill="#FFFFFF" fill-opacity="0.53" stroke="None">
<path d="
M 703.00 670.00 
C 701.52 667.33 700.77 661.77 700.00 659.00
C 700.14 664.14 697.68 666.61 703.00 670.00 Z"/>
</g>
<g fill="#FFFFFF" fill-opacity="0.71" stroke="None">
<path d="
M 662.00 681.00 
C 664.85 687.85 667.17 697.12 675.77 701.23 C 684.37 705.34 692.66 703.71 698.70 695.70 C 704.74 687.69 703.82 678.48 698.77 670.23 C 693.72 661.98 683.13 659.97 674.00 663.00
C 675.48 662.06 673.83 660.78 674.00 660.00
C 668.35 666.05 665.41 673.54 662.00 681.00
M 689.00 665.00 
C 708.86 671.28 698.87 708.27 677.98 700.02 C 657.08 691.78 666.89 658.01 689.00 665.00 Z"/>
</g>
<g fill="#FFFFFF" fill-opacity="0.21" stroke="None">
<path d="
M 792.00 672.00 
C 792.05 672.15 793.00 672.00 793.00 672.00
C 797.31 674.86 798.52 668.52 803.01 668.01 C 807.50 667.50 811.10 668.48 816.00 669.00
C 815.95 666.32 812.75 664.86 813.00 662.00
C 809.76 663.10 806.66 661.42 803.00 662.00
C 805.26 666.50 797.68 666.05 795.00 665.00
C 793.37 667.28 791.42 668.81 792.00 672.00 Z"/>
</g>
<g fill="#FFFFFF" fill-opacity="0.42" stroke="None">
<path d="
M 793.00 672.00 
C 795.99 675.38 796.54 687.00 797.00 691.00
C 796.72 689.73 797.21 688.29 797.00 687.00
C 802.56 690.29 808.09 696.57 817.00 694.00
C 818.05 698.48 812.94 698.24 810.00 698.00
C 810.15 699.18 809.57 700.06 809.00 701.00
C 815.74 702.94 819.56 697.26 824.00 694.00
C 822.15 693.52 819.71 692.51 820.00 690.00
C 823.25 686.47 826.32 682.34 821.75 677.25 C 817.17 672.17 825.83 671.21 829.00 676.00
C 826.03 668.88 821.33 662.71 813.00 662.00
C 812.75 664.86 815.95 666.32 816.00 669.00
C 811.10 668.48 807.50 667.50 803.01 668.01 C 798.52 668.52 797.31 674.86 793.00 672.00 Z"/>
</g>
<g fill="#FFFFFF" fill-opacity="0.42" stroke="None">
<path d="
M 689.00 665.00 
C 666.89 658.01 657.08 691.78 677.98 700.02 C 698.87 708.27 708.86 671.28 689.00 665.00 Z"/>
</g>
<g fill="#FFFFFF" fill-opacity="0.49" stroke="None">
<path d="
M 713.00 679.00 
C 710.00 677.43 707.23 674.91 705.00 672.00
C 705.07 672.53 702.86 675.34 706.30 677.70 C 709.75 680.05 709.94 678.43 713.00 679.00 Z"/>
</g>
<g fill="#FFFFFF" fill-opacity="0.65" stroke="None">
<path d="
M 797.00 691.00 
C 796.54 687.00 795.99 675.38 793.00 672.00
C 793.00 672.00 792.05 672.15 792.00 672.00
C 792.14 678.98 791.14 687.70 796.00 694.00
C 798.38 693.63 797.14 692.17 797.00 691.00 Z"/>
</g>
<g fill="#FFFFFF" fill-opacity="0.27" stroke="None">
<path d="
M 824.00 694.00 
C 825.18 690.25 826.22 695.10 828.00 693.00
C 830.84 687.57 831.69 682.45 829.00 676.00
C 825.83 671.21 817.17 672.17 821.75 677.25 C 826.32 682.34 823.25 686.47 820.00 690.00
C 819.71 692.51 822.15 693.52 824.00 694.00 Z"/>
</g>
<g fill="#FFFFFF" fill-opacity="0.39" stroke="None">
<path d="
M 852.00 678.00 
C 852.86 678.73 853.55 679.85 854.00 681.00
C 838.58 681.41 834.53 702.70 845.00 712.00
C 847.90 709.82 853.72 715.08 859.00 714.00 C 864.28 712.92 867.18 706.76 872.00 708.00
C 872.00 708.00 872.16 707.44 872.00 707.00
C 870.07 701.56 870.81 692.20 865.92 688.08 C 861.03 683.97 857.92 679.46 852.00 677.00
C 852.00 677.00 851.75 677.79 852.00 678.00 Z"/>
</g>
<g fill="#FFFFFF" fill-opacity="0.71" stroke="None">
<path d="
M 872.00 708.00 
C 867.18 706.76 864.28 712.92 859.00 714.00 C 853.72 715.08 847.90 709.82 845.00 712.00
C 834.53 702.70 838.58 681.41 854.00 681.00
C 853.55 679.85 852.86 678.73 852.00 678.00
C 845.49 680.81 841.25 683.33 837.93 689.93 C 834.60 696.52 836.68 703.62 840.23 709.77 C 843.78 715.92 851.08 718.49 857.98 717.98 C 864.87 717.46 871.74 707.38 871.00 718.00
C 872.80 715.65 872.00 711.17 872.00 708.00 Z"/>
</g>
<g fill="#FFFFFF" fill-opacity="0.32" stroke="None">
<path d="
M 753.00 697.00 
C 754.00 697.00 755.00 697.00 756.00 697.00
C 759.42 692.62 753.30 686.12 754.00 683.00
C 751.74 686.93 753.40 692.56 753.00 697.00 Z"/>
</g>
<g fill="#FFFFFF" fill-opacity="0.09" stroke="None">
<path d="
M 797.00 691.00 
C 797.76 694.49 807.27 697.78 810.00 698.00
C 812.94 698.24 818.05 698.48 817.00 694.00
C 808.09 696.57 802.56 690.29 797.00 687.00
C 797.21 688.29 796.72 689.73 797.00 691.00 Z"/>
</g>
<g fill="#FFFFFF" fill-opacity="0.77" stroke="None">
<path d="
M 642.00 699.00 
C 635.64 697.67 627.96 705.19 625.33 712.33 C 622.70 719.47 637.16 724.82 642.75 719.75 C 648.33 714.67 649.44 700.56 642.00 699.00 Z"/>
</g>
<g fill="#FFFFFF" fill-opacity="0.35" stroke="None">
<path d="
M 664.00 710.00 
C 672.00 713.57 684.16 709.64 693.00 712.00
C 689.24 710.28 684.03 706.77 679.01 708.01 C 673.98 709.25 669.51 711.56 664.00 710.00 Z"/>
</g>
<g fill="#FFFFFF" fill-opacity="0.89" stroke="None">
<path d="
M 646.00 747.00 
C 651.79 737.74 665.84 759.16 657.00 764.00
C 655.88 763.98 654.67 761.03 654.00 763.00
C 655.19 763.91 656.59 765.34 658.00 766.00
C 659.81 766.39 664.52 764.94 667.00 765.00 C 669.48 765.06 673.96 766.23 676.00 766.00
C 679.54 764.77 684.12 762.52 686.00 759.00
C 678.20 752.11 692.94 748.94 690.00 743.00
C 691.33 743.00 692.67 743.00 694.00 743.00
C 695.89 730.51 675.69 725.14 667.03 727.03 C 658.36 728.91 656.87 730.06 648.70 731.70 C 640.53 733.33 645.53 742.60 646.00 747.00 Z"/>
</g>
<g fill="#FFFFFF" fill-opacity="0.40" stroke="None">
<path d="
M 760.00 742.00 
C 767.19 743.38 758.68 749.61 755.75 752.75 C 752.81 755.88 754.10 765.88 757.00 769.00
C 755.51 771.38 753.03 767.65 752.00 770.00
C 752.34 770.01 752.83 770.67 753.00 771.00
C 756.70 771.26 761.22 773.60 761.00 778.00
C 762.43 774.51 769.11 776.79 771.74 774.74 C 774.38 772.70 776.36 772.23 779.00 770.00
C 781.78 767.64 783.75 767.84 786.00 766.00
C 785.00 766.05 784.00 765.96 783.00 766.00
C 782.64 760.84 785.84 757.83 784.00 753.00
C 779.02 753.61 776.76 744.37 772.00 743.00
C 772.81 739.03 776.75 743.17 778.00 741.00
C 772.71 736.87 765.24 739.59 760.00 742.00 Z"/>
</g>
<g fill="#FFFFFF" fill-opacity="0.17" stroke="None">
<path d="
M 786.00 766.00 
C 791.86 762.69 785.19 755.56 790.00 754.00
C 785.81 748.09 783.36 745.19 778.00 741.00
C 776.75 743.17 772.81 739.03 772.00 743.00
C 776.76 744.37 779.02 753.61 784.00 753.00
C 785.84 757.83 782.64 760.84 783.00 766.00
C 784.00 765.96 785.00 766.05 786.00 766.00 Z"/>
</g>
<g fill="#FFFFFF" fill-opacity="0.18" stroke="None">
<path d="
M 752.00 770.00 
C 753.03 767.65 755.51 771.38 757.00 769.00
C 754.10 765.88 752.81 755.88 755.75 752.75 C 758.68 749.61 767.19 743.38 760.00 742.00
C 754.92 743.18 752.88 748.17 749.00 751.00
C 752.39 755.40 746.59 769.79 752.00 770.00 Z"/>
</g>
<g fill="#FFFFFF" fill-opacity="0.34" stroke="None">
<path d="
M 686.00 759.00 
C 688.17 754.93 693.29 747.69 694.00 743.00
C 692.67 743.00 691.33 743.00 690.00 743.00
C 692.94 748.94 678.20 752.11 686.00 759.00 Z"/>
</g>
<g fill="#FFFFFF" fill-opacity="0.47" stroke="None">
<path d="
M 646.00 747.00 
C 647.03 756.79 645.74 756.68 654.00 763.00
C 654.67 761.03 655.88 763.98 657.00 764.00
C 665.84 759.16 651.79 737.74 646.00 747.00 Z"/>
</g>
<g fill="#FFFFFF" fill-opacity="0.71" stroke="None">
<path d="
M 805.00 755.00 
C 808.35 754.26 815.58 746.39 819.00 750.00
C 819.01 748.73 818.72 748.29 817.00 747.00
C 820.91 745.31 825.34 746.00 829.00 748.00
C 831.56 749.27 838.44 752.44 840.00 755.00
C 834.04 740.37 809.98 742.32 805.00 755.00 Z"/>
</g>
<g fill="#FFFFFF" fill-opacity="0.42" stroke="None">
<path d="
M 819.00 750.00 
C 818.99 751.28 819.58 751.86 820.00 753.00
C 811.89 752.05 810.26 760.70 806.00 765.00
C 803.22 762.37 806.85 758.00 805.00 756.00
C 800.99 763.66 802.56 779.83 812.00 784.00
C 809.98 782.20 809.96 777.64 810.00 775.00
C 817.34 781.45 833.53 782.20 835.00 770.00
C 839.14 768.72 838.35 773.41 840.00 775.00
C 840.93 773.05 842.83 767.57 843.00 766.00
C 841.91 767.84 839.57 765.15 838.00 766.00
C 839.64 761.16 835.00 759.55 834.00 756.00
C 827.96 757.68 820.96 750.41 829.00 748.00
C 825.34 746.00 820.91 745.31 817.00 747.00
C 818.72 748.29 819.01 748.73 819.00 750.00 Z"/>
</g>
<g fill="#FFFFFF" fill-opacity="0.20" stroke="None">
<path d="
M 843.00 766.00 
C 843.31 763.99 843.10 758.62 840.00 761.00
C 840.26 758.39 840.95 757.33 840.00 755.00
C 838.44 752.44 831.56 749.27 829.00 748.00
C 820.96 750.41 827.96 757.68 834.00 756.00
C 835.00 759.55 839.64 761.16 838.00 766.00
C 839.57 765.15 841.91 767.84 843.00 766.00 Z"/>
</g>
<g fill="#FFFFFF" fill-opacity="0.09" stroke="None">
<path d="
M 805.00 755.00 
C 805.00 755.00 804.77 755.65 805.00 756.00
C 806.85 758.00 803.22 762.37 806.00 765.00
C 810.26 760.70 811.89 752.05 820.00 753.00
C 819.58 751.86 818.99 751.28 819.00 750.00
C 815.58 746.39 808.35 754.26 805.00 755.00 Z"/>
</g>
<g fill="#FFFFFF" fill-opacity="0.43" stroke="None">
<path d="
M 658.00 766.00 
C 662.39 768.06 671.49 767.56 676.00 766.00
C 673.96 766.23 669.48 765.06 667.00 765.00 C 664.52 764.94 659.81 766.39 658.00 766.00 Z"/>
</g>
<g fill="#FFFFFF" fill-opacity="0.22" stroke="None">
<path d="
M 779.00 770.00 
C 776.36 772.23 774.38 772.70 771.74 774.74 C 769.11 776.79 762.43 774.51 761.00 778.00
C 760.98 778.50 761.00 779.00 761.00 779.00
C 767.69 783.70 787.66 779.30 784.00 768.00
C 782.82 768.56 779.13 769.92 779.00 770.00 Z"/>
</g>
<g fill="#FFFFFF" fill-opacity="0.13" stroke="None">
<path d="
M 812.00 784.00 
C 816.41 784.02 821.24 784.70 828.00 785.00
C 827.92 781.59 831.56 780.48 834.00 782.00
C 834.75 777.13 838.31 778.56 840.00 775.00
C 838.35 773.41 839.14 768.72 835.00 770.00
C 833.53 782.20 817.34 781.45 810.00 775.00
C 809.96 777.64 809.98 782.20 812.00 784.00 Z"/>
</g>
<g fill="#FFFFFF" fill-opacity="0.72" stroke="None">
<path d="
M 761.00 779.00 
C 761.00 779.00 760.98 778.50 761.00 778.00
C 761.22 773.60 756.70 771.26 753.00 771.00
C 754.46 773.92 757.37 778.60 761.00 779.00 Z"/>
</g>
<g fill="#FFFFFF" fill-opacity="0.38" stroke="None">
<path d="
M 656.00 780.00 
C 657.74 779.57 662.91 781.07 666.00 781.00 C 669.09 780.93 672.41 779.62 674.00 779.00
C 668.33 779.67 661.14 777.37 656.00 780.00 Z"/>
</g>
<g fill="#FFFFFF" fill-opacity="0.31" stroke="None">
<path d="
M 728.00 827.00 
C 728.25 827.04 730.98 824.98 732.00 826.00
C 727.82 820.39 731.62 813.65 731.00 808.00
C 734.25 807.58 742.92 798.98 737.00 797.00
C 739.91 797.59 742.06 795.41 745.00 796.00
C 744.84 794.69 745.13 793.32 745.00 792.00
C 746.83 791.77 748.48 792.07 750.00 793.00
C 744.24 788.38 737.39 795.02 732.08 798.08 C 726.78 801.15 730.67 810.82 725.00 811.00
C 726.96 816.84 721.71 822.37 728.00 827.00 Z"/>
</g>
<g fill="#FFFFFF" fill-opacity="0.17" stroke="None">
<path d="
M 745.00 796.00 
C 745.86 796.10 748.71 797.89 749.75 799.25 C 750.80 800.61 754.93 799.62 755.25 801.76 C 755.57 803.90 761.33 804.17 759.75 807.25 C 758.18 810.32 762.20 810.75 763.00 812.00
C 764.57 808.06 763.18 804.12 762.00 800.00
C 757.35 800.34 754.09 795.17 750.00 793.00
C 748.48 792.07 746.83 791.77 745.00 792.00
C 745.13 793.32 744.84 794.69 745.00 796.00 Z"/>
</g>
<g fill="#FFFFFF" fill-opacity="0.40" stroke="None">
<path d="
M 728.00 827.00 
C 730.53 828.86 733.34 829.84 736.00 832.00
C 735.74 830.72 736.20 829.29 736.00 828.00
C 741.29 827.82 747.33 828.58 752.22 827.22 C 757.11 825.86 755.26 819.83 761.00 820.00
C 760.89 821.70 760.62 824.84 763.00 823.00
C 763.67 819.59 762.86 814.43 763.00 812.00
C 762.20 810.75 758.18 810.32 759.75 807.25 C 761.33 804.17 755.57 803.90 755.25 801.76 C 754.93 799.62 750.80 800.61 749.75 799.25 C 748.71 797.89 745.86 796.10 745.00 796.00
C 742.06 795.41 739.91 797.59 737.00 797.00
C 742.92 798.98 734.25 807.58 731.00 808.00
C 731.62 813.65 727.82 820.39 732.00 826.00
C 730.98 824.98 728.25 827.04 728.00 827.00 Z"/>
</g>
<g fill="#FFFFFF" fill-opacity="0.68" stroke="None">
<path d="
M 660.00 809.00 
C 666.09 813.69 673.18 811.87 680.75 817.25 C 688.31 822.63 681.64 834.79 683.00 840.00
C 683.35 840.42 683.68 841.47 684.00 842.00
C 686.00 843.75 688.95 834.23 689.00 831.00 C 689.05 827.77 688.37 818.93 685.30 816.70 C 682.23 814.47 679.84 807.87 675.00 809.00 C 670.16 810.13 663.54 806.30 660.00 807.00
C 660.20 807.40 659.85 808.55 660.00 809.00 Z"/>
</g>
<g fill="#FFFFFF" fill-opacity="0.36" stroke="None">
<path d="
M 683.00 840.00 
C 681.64 834.79 688.31 822.63 680.75 817.25 C 673.18 811.87 666.09 813.69 660.00 809.00
C 661.28 812.72 666.89 818.10 664.78 822.78 C 662.67 827.45 666.72 832.73 671.00 834.00 C 675.28 835.28 679.83 836.20 683.00 840.00 Z"/>
</g>
<g fill="#FFFFFF" fill-opacity="0.64" stroke="None">
<path d="
M 825.00 848.00 
C 825.36 847.44 826.50 846.48 827.00 846.00
C 829.26 841.50 818.88 831.38 823.78 824.78 C 828.68 818.18 832.48 812.37 842.00 814.00
C 840.97 811.63 836.96 814.46 836.00 812.00
C 827.21 812.98 823.40 818.20 820.00 826.00 C 816.60 833.80 826.47 842.46 825.00 848.00
M 834.00 813.00 
C 834.74 813.74 833.18 812.18 834.00 813.00 Z"/>
</g>
<g fill="#FFFFFF" fill-opacity="0.40" stroke="None">
<path d="
M 827.00 846.00 
C 832.27 840.89 841.36 842.81 844.74 837.74 C 848.13 832.68 852.41 826.50 856.00 821.00
C 850.50 815.50 845.00 810.99 836.00 812.00
C 836.96 814.46 840.97 811.63 842.00 814.00
C 832.48 812.37 828.68 818.18 823.78 824.78 C 818.88 831.38 829.26 841.50 827.00 846.00 Z"/>
</g>
<g fill="#FFFFFF" fill-opacity="0.67" stroke="None">
<path d="
M 834.00 813.00 
C 833.18 812.18 834.74 813.74 834.00 813.00 Z"/>
</g>
<g fill="#FFFFFF" fill-opacity="0.22" stroke="None">
<path d="
M 736.00 832.00 
C 741.10 840.38 752.62 829.73 755.00 833.00
C 756.87 830.63 757.95 822.92 762.00 827.00
C 762.09 825.50 762.72 824.42 763.00 823.00
C 760.62 824.84 760.89 821.70 761.00 820.00
C 755.26 819.83 757.11 825.86 752.22 827.22 C 747.33 828.58 741.29 827.82 736.00 828.00
C 736.20 829.29 735.74 830.72 736.00 832.00 Z"/>
</g>
<g fill="#FFFFFF" fill-opacity="0.65" stroke="None">
<path d="
M 743.00 872.00 
C 747.98 872.56 754.01 872.44 759.00 872.00
C 760.97 867.96 762.71 862.59 766.30 857.30 C 769.89 852.02 778.81 851.26 784.68 851.34 C 790.54 851.41 792.61 863.23 797.00 864.00
C 797.62 863.78 798.66 863.12 799.00 863.00
C 792.45 858.00 786.29 846.45 775.02 849.02 C 763.76 851.60 760.24 859.94 758.00 870.00
C 752.67 869.72 746.94 870.77 742.00 869.00
C 742.48 869.19 742.94 871.97 743.00 872.00
M 781.00 850.00 
C 774.89 852.91 772.68 848.79 781.00 850.00 Z"/>
</g>
<g fill="#FFFFFF" fill-opacity="0.70" stroke="None">
<path d="
M 781.00 850.00 
C 772.68 848.79 774.89 852.91 781.00 850.00 Z"/>
</g>
<g fill="#FFFFFF" fill-opacity="0.39" stroke="None">
<path d="
M 759.00 872.00 
C 766.10 871.37 773.61 875.96 779.77 873.77 C 785.93 871.58 790.60 866.29 797.00 864.00
C 792.61 863.23 790.54 851.41 784.68 851.34 C 778.81 851.26 769.89 852.02 766.30 857.30 C 762.71 862.59 760.97 867.96 759.00 872.00 Z"/>
</g>
</svg>