<svg xmlns="http://www.w3.org/2000/svg" xmlns:v="https://svgstorm.com"
viewBox = "0 0 250 250"
width="250"
height="250">
<g fill="None" fill-opacity="0.0" stroke="#000000" stroke-opacity="0.00" stroke-width="0.3"><path d="
M 0.00 250.00 
L 127.00 250.00
C 104.70 241.20 77.79 243.67 57.00 231.00
C 55.41 230.03 54.44 229.26 53.00 228.00
C 47.76 223.44 41.72 219.42 36.00 216.00
C 36.86 210.59 33.73 206.19 31.00 202.00
C 30.66 201.65 28.56 200.89 29.00 200.00
C 21.55 199.67 14.87 181.09 13.00 175.00
C 12.60 173.70 12.42 172.34 12.00 171.00
C 8.70 160.45 -1.91 149.15 7.00 138.00
C 5.99 136.91 4.78 135.41 4.00 134.00
C 2.53 127.98 3.55 117.78 5.00 112.00
C 10.16 91.49 17.89 72.07 35.00 59.00
C 40.55 54.58 40.57 47.64 45.70 43.70 C 50.83 39.76 59.03 40.63 65.00 37.00
C 65.64 36.61 66.40 36.37 67.00 36.00
C 72.47 32.61 93.42 22.81 94.97 33.03 C 96.53 43.24 94.01 58.93 103.25 65.75 C 112.49 72.58 114.11 81.12 126.23 83.77 C 138.35 86.42 142.70 93.87 145.92 105.08 C 149.15 116.28 158.38 118.86 166.75 125.25 C 175.11 131.65 192.16 126.85 194.93 138.07 C 197.69 149.30 206.80 153.81 215.22 158.78 C 223.65 163.74 238.06 166.98 231.22 178.22 C 224.39 189.47 223.38 195.14 217.08 205.08 C 210.78 215.02 204.88 219.02 197.00 227.00
C 195.68 228.34 195.66 228.20 194.00 229.00
C 192.94 229.51 191.66 230.58 190.00 230.00
C 189.45 232.28 188.19 234.81 190.00 237.00
C 185.61 238.17 182.61 245.49 178.08 242.87 C 173.56 240.25 167.91 247.11 163.00 247.00
C 152.55 247.94 141.40 246.64 132.00 250.00
L 250.00 250.00
L 250.00 118.00
C 248.82 118.50 248.19 119.56 247.00 120.00
C 246.56 120.16 246.00 120.00 246.00 120.00
C 244.23 123.37 244.97 126.14 245.99 130.01 C 247.02 133.87 242.54 135.92 242.00 139.00
C 241.78 140.24 242.00 141.74 242.00 143.00
C 241.96 158.05 220.93 155.98 221.00 142.00
C 204.31 139.69 208.86 117.48 215.75 107.75 C 222.65 98.03 247.71 90.48 248.00 108.00
C 248.16 108.39 249.66 108.87 250.00 109.00
L 250.00 0.00
L 208.00 0.00
C 208.17 0.34 208.68 0.80 209.00 1.00
C 216.85 5.86 217.72 9.04 221.00 17.00
C 227.08 31.77 210.12 28.89 200.31 24.69 C 190.49 20.50 193.20 4.49 202.00 0.00
L 0.00 0.00
L 0.00 250.00
M 163.00 1.00 
C 172.70 2.85 180.45 20.19 166.00 21.00 C 151.54 21.81 150.15 -1.45 163.00 1.00
M 111.00 32.00 
C 111.27 31.83 111.79 31.27 112.00 31.00
C 117.79 23.56 120.16 23.01 129.00 21.00
C 130.44 20.67 131.59 20.37 133.00 20.00
C 145.35 16.73 144.76 35.97 147.97 44.03 C 151.19 52.08 140.82 70.27 131.00 68.00
C 128.16 59.18 116.75 63.36 112.70 56.30 C 108.64 49.25 106.62 38.97 111.00 32.00
M 190.00 36.00 
C 201.59 40.23 216.38 46.79 221.00 59.00
C 225.91 71.97 218.64 74.36 206.93 76.93 C 195.21 79.49 196.25 90.52 190.69 98.69 C 185.14 106.87 172.71 106.46 164.77 101.23 C 156.83 96.00 151.39 86.40 159.75 77.75 C 168.12 69.10 164.50 57.18 165.00 45.00 C 165.50 32.82 179.95 32.34 190.00 36.00 Z"/>
</g>
<g fill="None" fill-opacity="0.0" stroke="#FFFFFF" stroke-opacity="0.89" stroke-width="0.3"><path d="
M 221.00 17.00 
C 220.07 16.18 215.56 15.66 214.00 15.00
C 207.23 12.12 205.73 6.97 209.00 2.00
C 208.76 1.68 209.00 1.00 209.00 1.00
C 208.68 0.80 208.17 0.34 208.00 0.00
L 202.00 0.00
C 193.20 4.49 190.49 20.50 200.31 24.69 C 210.12 28.89 227.08 31.77 221.00 17.00 Z"/>
</g>
<g fill="None" fill-opacity="0.0" stroke="#FEFFFE" stroke-opacity="0.87" stroke-width="0.3"><path d="
M 163.00 1.00 
C 150.15 -1.45 151.54 21.81 166.00 21.00 C 180.45 20.19 172.70 2.85 163.00 1.00 Z"/>
</g>
<g fill="None" fill-opacity="0.0" stroke="#FFFFFF" stroke-opacity="0.40" stroke-width="0.3"><path d="
M 209.00 2.00 
C 211.86 5.86 209.06 11.29 214.00 15.00
C 215.56 15.66 220.07 16.18 221.00 17.00
C 217.72 9.04 216.85 5.86 209.00 1.00
C 209.00 1.00 208.76 1.68 209.00 2.00 Z"/>
</g>
<g fill="None" fill-opacity="0.0" stroke="#FFFFFF" stroke-opacity="0.63" stroke-width="0.3"><path d="
M 214.00 15.00 
C 209.06 11.29 211.86 5.86 209.00 2.00
C 205.73 6.97 207.23 12.12 214.00 15.00 Z"/>
</g>
<g fill="None" fill-opacity="0.0" stroke="#FFFFFF" stroke-opacity="0.91" stroke-width="0.3"><path d="
M 133.00 20.00 
C 130.20 21.52 128.29 28.51 125.25 31.25 C 122.20 33.98 113.66 36.33 111.00 32.00
C 106.62 38.97 108.64 49.25 112.70 56.30 C 116.75 63.36 128.16 59.18 131.00 68.00
C 140.82 70.27 151.19 52.08 147.97 44.03 C 144.76 35.97 145.35 16.73 133.00 20.00 Z"/>
</g>
<g fill="None" fill-opacity="0.0" stroke="#FFFFFF" stroke-opacity="0.67" stroke-width="0.3"><path d="
M 129.00 21.00 
C 125.59 22.91 126.70 26.20 123.25 29.25 C 119.79 32.29 116.35 31.39 112.00 31.00
C 111.79 31.27 111.27 31.83 111.00 32.00
C 113.66 36.33 122.20 33.98 125.25 31.25 C 128.29 28.51 130.20 21.52 133.00 20.00
C 131.59 20.37 130.44 20.67 129.00 21.00 Z"/>
</g>
<g fill="None" fill-opacity="0.0" stroke="#FFFFFF" stroke-opacity="0.39" stroke-width="0.3"><path d="
M 112.00 31.00 
C 116.35 31.39 119.79 32.29 123.25 29.25 C 126.70 26.20 125.59 22.91 129.00 21.00
C 120.16 23.01 117.79 23.56 112.00 31.00 Z"/>
</g>
<g fill="None" fill-opacity="0.0" stroke="#FFFFFF" stroke-opacity="0.93" stroke-width="0.3"><path d="
M 67.00 36.00 
C 66.54 36.50 66.40 37.56 66.00 38.00
C 64.27 46.13 67.24 55.43 58.90 59.90 C 50.56 64.37 43.84 65.86 35.00 62.00
C 34.47 60.72 35.97 60.14 36.00 59.00
C 35.55 59.15 35.00 59.00 35.00 59.00
C 17.89 72.07 10.16 91.49 5.00 112.00
C 5.16 116.47 7.63 126.07 6.00 133.00
C 16.31 134.40 23.90 139.04 26.00 150.00 C 28.09 160.97 18.42 168.29 13.00 175.00
C 14.87 181.09 21.55 199.67 29.00 200.00
C 29.50 200.02 30.00 200.00 30.00 200.00
C 36.65 189.80 53.67 193.44 60.23 200.77 C 66.80 208.09 63.21 209.78 65.00 217.00 C 66.79 224.22 55.72 225.50 57.00 231.00
C 77.79 243.67 104.70 241.20 127.00 250.00
L 132.00 250.00
C 141.40 246.64 152.55 247.94 163.00 247.00
C 163.04 247.00 163.00 246.00 163.00 246.00
C 152.03 234.79 156.42 218.53 170.00 213.00
C 179.84 209.00 196.19 214.25 196.00 227.00
C 196.37 226.78 197.00 227.00 197.00 227.00
C 204.88 219.02 210.78 215.02 217.08 205.08 C 223.38 195.14 224.39 189.47 231.22 178.22 C 238.06 166.98 223.65 163.74 215.22 158.78 C 206.80 153.81 197.69 149.30 194.93 138.07 C 192.16 126.85 175.11 131.65 166.75 125.25 C 158.38 118.86 149.15 116.28 145.92 105.08 C 142.70 93.87 138.35 86.42 126.23 83.77 C 114.11 81.12 112.49 72.58 103.25 65.75 C 94.01 58.93 96.53 43.24 94.97 33.03 C 93.42 22.81 72.47 32.61 67.00 36.00
M 77.00 111.00 
C 77.05 111.15 78.00 111.00 78.00 111.00
C 82.44 112.92 79.19 116.77 83.25 119.75 C 87.31 122.73 79.94 127.07 80.00 127.00
C 76.56 134.36 71.64 139.23 63.00 139.00
C 59.53 138.91 51.61 137.46 50.00 136.00
C 43.16 129.79 38.50 120.74 43.00 111.00
C 44.00 108.83 46.70 105.55 48.00 104.00
C 54.40 96.36 73.85 101.36 77.00 111.00
M 130.00 130.00 
C 134.10 132.59 135.96 141.28 135.00 148.00
C 133.51 158.46 115.22 170.99 109.00 159.00
C 98.26 162.11 94.08 146.63 95.00 138.00
C 95.30 133.85 101.93 128.30 105.00 127.00
C 114.92 122.80 121.48 124.62 130.00 130.00
M 212.00 185.00 
C 212.29 188.80 205.94 204.69 200.00 203.00
C 199.54 202.87 198.45 202.85 198.00 203.00
C 197.77 203.34 198.00 204.00 198.00 204.00
C 196.35 209.53 187.20 204.16 187.00 204.00
C 184.37 201.82 182.84 198.84 181.00 197.00
C 177.29 197.48 176.18 193.45 176.00 191.00
C 175.42 183.06 177.20 177.08 183.00 172.00
C 184.19 170.96 184.74 170.80 186.00 170.00
C 190.97 166.87 194.58 167.00 201.00 167.00
C 201.88 167.00 203.15 166.78 204.00 167.00
C 210.86 168.75 211.58 179.48 212.00 185.00
M 114.00 179.00 
C 120.29 181.40 123.14 184.91 127.00 190.00
C 132.02 196.61 130.01 207.78 122.00 212.00
C 117.70 214.26 114.85 217.04 109.00 217.00
C 107.26 216.99 102.15 215.26 100.00 214.00
C 95.42 211.31 92.20 205.34 90.74 201.26 C 89.29 197.17 89.72 184.93 95.00 185.00
C 92.53 182.00 100.74 179.12 103.00 179.00
C 103.96 178.95 105.06 179.17 106.00 179.00
C 110.16 177.25 111.30 177.97 114.00 179.00 Z"/>
</g>
<g fill="None" fill-opacity="0.0" stroke="#FFFFFF" stroke-opacity="0.90" stroke-width="0.3"><path d="
M 221.00 59.00 
C 219.13 55.71 215.82 51.14 212.00 50.00
C 219.28 69.91 196.79 84.92 179.92 74.08 C 163.05 63.24 173.97 36.98 194.00 39.00
C 193.26 37.47 190.23 38.33 190.00 36.00
C 179.95 32.34 165.50 32.82 165.00 45.00 C 164.50 57.18 168.12 69.10 159.75 77.75 C 151.39 86.40 156.83 96.00 164.77 101.23 C 172.71 106.46 185.14 106.87 190.69 98.69 C 196.25 90.52 195.21 79.49 206.93 76.93 C 218.64 74.36 225.91 71.97 221.00 59.00 Z"/>
</g>
<g fill="None" fill-opacity="0.0" stroke="#FFFFFF" stroke-opacity="0.58" stroke-width="0.3"><path d="
M 65.00 37.00 
C 61.53 39.84 63.91 44.31 63.00 48.00
C 63.54 46.98 63.72 40.51 66.00 38.00
C 66.40 37.56 66.54 36.50 67.00 36.00
C 66.40 36.37 65.64 36.61 65.00 37.00 Z"/>
</g>
<g fill="None" fill-opacity="0.0" stroke="#FFFFFF" stroke-opacity="0.72" stroke-width="0.3"><path d="
M 221.00 59.00 
C 216.38 46.79 201.59 40.23 190.00 36.00
C 190.23 38.33 193.26 37.47 194.00 39.00
C 173.97 36.98 163.05 63.24 179.92 74.08 C 196.79 84.92 219.28 69.91 212.00 50.00
C 215.82 51.14 219.13 55.71 221.00 59.00
M 197.00 42.00 
C 219.35 46.24 209.48 82.01 188.00 75.00 C 166.52 67.99 174.15 37.67 197.00 42.00 Z"/>
</g>
<g fill="None" fill-opacity="0.0" stroke="#FFFFFF" stroke-opacity="0.39" stroke-width="0.3"><path d="
M 35.00 59.00 
C 35.00 59.00 35.55 59.15 36.00 59.00
C 40.65 57.45 47.61 61.81 52.68 58.68 C 57.74 55.55 60.34 53.05 63.00 48.00
C 63.91 44.31 61.53 39.84 65.00 37.00
C 59.03 40.63 50.83 39.76 45.70 43.70 C 40.57 47.64 40.55 54.58 35.00 59.00 Z"/>
</g>
<g fill="None" fill-opacity="0.0" stroke="#FFFFFF" stroke-opacity="0.71" stroke-width="0.3"><path d="
M 63.00 48.00 
C 60.34 53.05 57.74 55.55 52.68 58.68 C 47.61 61.81 40.65 57.45 36.00 59.00
C 35.97 60.14 34.47 60.72 35.00 62.00
C 43.84 65.86 50.56 64.37 58.90 59.90 C 67.24 55.43 64.27 46.13 66.00 38.00
C 63.72 40.51 63.54 46.98 63.00 48.00 Z"/>
</g>
<g fill="None" fill-opacity="0.0" stroke="#FEFFFE" stroke-opacity="0.41" stroke-width="0.3"><path d="
M 197.00 42.00 
C 174.15 37.67 166.52 67.99 188.00 75.00 C 209.48 82.01 219.35 46.24 197.00 42.00 Z"/>
</g>
<g fill="None" fill-opacity="0.0" stroke="#FFFFFF" stroke-opacity="0.91" stroke-width="0.3"><path d="
M 242.00 143.00 
C 241.93 142.76 241.11 142.35 241.00 142.00
C 238.10 140.56 235.91 139.53 234.08 136.92 C 232.25 134.30 231.25 130.15 232.93 127.93 C 234.60 125.70 236.59 121.98 238.25 121.25 C 239.90 120.52 247.72 117.76 248.00 118.00
C 248.63 115.05 248.12 111.02 248.00 108.00
C 247.71 90.48 222.65 98.03 215.75 107.75 C 208.86 117.48 204.31 139.69 221.00 142.00
C 220.93 155.98 241.96 158.05 242.00 143.00 Z"/>
</g>
<g fill="None" fill-opacity="0.0" stroke="#000000" stroke-opacity="0.00" stroke-width="0.3"><path d="
M 48.00 104.00 
C 47.84 109.23 59.41 104.69 63.68 107.32 C 67.95 109.96 72.03 116.10 77.00 116.00
C 77.00 114.33 77.00 112.67 77.00 111.00
C 73.85 101.36 54.40 96.36 48.00 104.00 Z"/>
</g>
<g fill="None" fill-opacity="0.0" stroke="#FEFFFE" stroke-opacity="0.40" stroke-width="0.3"><path d="
M 43.00 111.00 
C 43.99 110.42 45.93 111.45 47.00 111.00
C 46.70 116.20 46.63 120.87 48.75 125.25 C 50.88 129.62 55.78 130.63 55.00 136.00
C 53.33 136.00 51.67 136.00 50.00 136.00
C 51.61 137.46 59.53 138.91 63.00 139.00
C 63.83 138.26 62.37 134.97 63.00 134.00
C 72.11 134.80 73.90 123.90 79.00 120.00
C 77.51 117.11 78.29 114.19 78.00 111.00
C 78.00 111.00 77.05 111.15 77.00 111.00
C 77.00 112.67 77.00 114.33 77.00 116.00
C 72.03 116.10 67.95 109.96 63.68 107.32 C 59.41 104.69 47.84 109.23 48.00 104.00
C 46.70 105.55 44.00 108.83 43.00 111.00 Z"/>
</g>
<g fill="None" fill-opacity="0.0" stroke="#FFFFFF" stroke-opacity="0.60" stroke-width="0.3"><path d="
M 248.00 118.00 
C 247.97 118.12 246.98 120.01 247.00 120.00
C 248.19 119.56 248.82 118.50 250.00 118.00
L 250.00 109.00
C 249.66 108.87 248.16 108.39 248.00 108.00
C 248.12 111.02 248.63 115.05 248.00 118.00 Z"/>
</g>
<g fill="None" fill-opacity="0.0" stroke="#000000" stroke-opacity="0.00" stroke-width="0.3"><path d="
M 50.00 136.00 
C 51.67 136.00 53.33 136.00 55.00 136.00
C 55.78 130.63 50.88 129.62 48.75 125.25 C 46.63 120.87 46.70 116.20 47.00 111.00
C 45.93 111.45 43.99 110.42 43.00 111.00
C 38.50 120.74 43.16 129.79 50.00 136.00 Z"/>
</g>
<g fill="None" fill-opacity="0.0" stroke="#FFFFFF" stroke-opacity="0.67" stroke-width="0.3"><path d="
M 79.00 120.00 
C 79.21 120.41 81.63 119.67 82.00 120.00
C 82.10 122.78 82.49 125.56 80.00 127.00
C 79.94 127.07 87.31 122.73 83.25 119.75 C 79.19 116.77 82.44 112.92 78.00 111.00
C 78.29 114.19 77.51 117.11 79.00 120.00 Z"/>
</g>
<g fill="None" fill-opacity="0.0" stroke="#FFFFFF" stroke-opacity="0.70" stroke-width="0.3"><path d="
M 4.00 134.00 
C 6.13 139.24 14.03 136.78 17.70 141.30 C 21.37 145.82 22.90 152.16 21.07 158.07 C 19.24 163.98 11.61 164.69 12.00 171.00
C 12.42 172.34 12.60 173.70 13.00 175.00
C 18.42 168.29 28.09 160.97 26.00 150.00 C 23.90 139.04 16.31 134.40 6.00 133.00
C 7.63 126.07 5.16 116.47 5.00 112.00
C 3.55 117.78 2.53 127.98 4.00 134.00 Z"/>
</g>
<g fill="None" fill-opacity="0.0" stroke="#FFFFFF" stroke-opacity="0.80" stroke-width="0.3"><path d="
M 241.00 142.00 
C 239.68 137.65 233.41 136.14 235.00 130.00 C 236.59 123.86 238.58 123.24 244.00 121.00
C 244.77 120.68 245.16 120.15 246.00 120.00
C 246.00 120.00 246.56 120.16 247.00 120.00
C 246.98 120.01 247.97 118.12 248.00 118.00
C 247.72 117.76 239.90 120.52 238.25 121.25 C 236.59 121.98 234.60 125.70 232.93 127.93 C 231.25 130.15 232.25 134.30 234.08 136.92 C 235.91 139.53 238.10 140.56 241.00 142.00 Z"/>
</g>
<g fill="None" fill-opacity="0.0" stroke="#000000" stroke-opacity="0.00" stroke-width="0.3"><path d="
M 63.00 139.00 
C 71.64 139.23 76.56 134.36 80.00 127.00
C 82.49 125.56 82.10 122.78 82.00 120.00
C 81.63 119.67 79.21 120.41 79.00 120.00
C 73.90 123.90 72.11 134.80 63.00 134.00
C 62.37 134.97 63.83 138.26 63.00 139.00 Z"/>
</g>
<g fill="None" fill-opacity="0.0" stroke="#FFFFFF" stroke-opacity="0.40" stroke-width="0.3"><path d="
M 244.00 121.00 
C 239.65 123.97 238.91 123.93 236.08 129.08 C 233.24 134.22 241.02 136.04 242.00 139.00
C 242.54 135.92 247.02 133.87 245.99 130.01 C 244.97 126.14 244.23 123.37 246.00 120.00
C 245.16 120.15 244.77 120.68 244.00 121.00 Z"/>
</g>
<g fill="None" fill-opacity="0.0" stroke="#FFFFFF" stroke-opacity="0.56" stroke-width="0.3"><path d="
M 241.00 142.00 
C 241.11 142.35 241.93 142.76 242.00 143.00
C 242.00 141.74 241.78 140.24 242.00 139.00
C 241.02 136.04 233.24 134.22 236.08 129.08 C 238.91 123.93 239.65 123.97 244.00 121.00
C 238.58 123.24 236.59 123.86 235.00 130.00 C 233.41 136.14 239.68 137.65 241.00 142.00 Z"/>
</g>
<g fill="None" fill-opacity="0.0" stroke="#000000" stroke-opacity="0.00" stroke-width="0.3"><path d="
M 105.00 127.00 
C 103.95 128.27 104.70 129.88 104.00 131.00
C 104.82 130.87 108.37 133.15 110.00 132.00
C 113.44 126.69 121.98 128.24 125.23 134.77 C 128.48 141.29 136.75 136.68 130.00 130.00
C 121.48 124.62 114.92 122.80 105.00 127.00 Z"/>
</g>
<g fill="None" fill-opacity="0.0" stroke="#FFFFFF" stroke-opacity="0.72" stroke-width="0.3"><path d="
M 95.00 138.00 
C 96.13 135.56 97.44 137.15 99.00 136.00
C 98.72 136.20 104.27 130.58 104.00 131.00
C 104.70 129.88 103.95 128.27 105.00 127.00
C 101.93 128.30 95.30 133.85 95.00 138.00 Z"/>
</g>
<g fill="None" fill-opacity="0.0" stroke="#FFFFFF" stroke-opacity="0.40" stroke-width="0.3"><path d="
M 104.00 131.00 
C 104.27 130.58 98.72 136.20 99.00 136.00
C 97.96 144.15 106.11 152.44 109.00 158.00
C 118.38 160.32 126.73 154.80 130.00 146.00
C 131.53 147.13 133.45 146.91 135.00 148.00
C 135.96 141.28 134.10 132.59 130.00 130.00
C 136.75 136.68 128.48 141.29 125.23 134.77 C 121.98 128.24 113.44 126.69 110.00 132.00
C 108.37 133.15 104.82 130.87 104.00 131.00 Z"/>
</g>
<g fill="None" fill-opacity="0.0" stroke="#FEFFFE" stroke-opacity="0.39" stroke-width="0.3"><path d="
M 12.00 171.00 
C 11.61 164.69 19.24 163.98 21.07 158.07 C 22.90 152.16 21.37 145.82 17.70 141.30 C 14.03 136.78 6.13 139.24 4.00 134.00
C 4.78 135.41 5.99 136.91 7.00 138.00
C -1.91 149.15 8.70 160.45 12.00 171.00 Z"/>
</g>
<g fill="None" fill-opacity="0.0" stroke="#000000" stroke-opacity="0.00" stroke-width="0.3"><path d="
M 95.00 138.00 
C 94.08 146.63 98.26 162.11 109.00 159.00
C 115.22 170.99 133.51 158.46 135.00 148.00
C 133.45 146.91 131.53 147.13 130.00 146.00
C 126.73 154.80 118.38 160.32 109.00 158.00
C 106.11 152.44 97.96 144.15 99.00 136.00
C 97.44 137.15 96.13 135.56 95.00 138.00 Z"/>
</g>
<g fill="None" fill-opacity="0.0" stroke="#FEFEFE" stroke-opacity="0.71" stroke-width="0.3"><path d="
M 186.00 170.00 
C 191.20 168.61 196.47 168.95 201.00 167.00
C 194.58 167.00 190.97 166.87 186.00 170.00 Z"/>
</g>
<g fill="None" fill-opacity="0.0" stroke="#FEFFFE" stroke-opacity="0.41" stroke-width="0.3"><path d="
M 186.00 170.00 
C 184.74 170.80 184.19 170.96 183.00 172.00
C 190.53 168.75 190.77 176.41 185.08 179.08 C 179.40 181.76 187.56 195.54 178.00 194.00
C 178.82 191.99 176.18 192.53 176.00 191.00
C 176.18 193.45 177.29 197.48 181.00 197.00
C 182.43 196.81 186.31 193.79 188.23 196.77 C 190.15 199.75 193.54 199.30 195.68 197.68 C 197.82 196.05 200.15 193.56 204.00 195.00
C 203.27 198.26 201.18 200.37 200.00 203.00
C 205.94 204.69 212.29 188.80 212.00 185.00
C 211.58 188.44 209.08 192.66 205.00 192.00
C 204.08 187.50 208.35 180.14 204.69 176.31 C 201.04 172.47 198.36 170.04 204.00 167.00
C 203.15 166.78 201.88 167.00 201.00 167.00
C 196.47 168.95 191.20 168.61 186.00 170.00 Z"/>
</g>
<g fill="None" fill-opacity="0.0" stroke="#000000" stroke-opacity="0.00" stroke-width="0.3"><path d="
M 212.00 185.00 
C 211.58 179.48 210.86 168.75 204.00 167.00
C 198.36 170.04 201.04 172.47 204.69 176.31 C 208.35 180.14 204.08 187.50 205.00 192.00
C 209.08 192.66 211.58 188.44 212.00 185.00 Z"/>
</g>
<g fill="None" fill-opacity="0.0" stroke="#000000" stroke-opacity="0.00" stroke-width="0.3"><path d="
M 183.00 172.00 
C 177.20 177.08 175.42 183.06 176.00 191.00
C 176.18 192.53 178.82 191.99 178.00 194.00
C 187.56 195.54 179.40 181.76 185.08 179.08 C 190.77 176.41 190.53 168.75 183.00 172.00 Z"/>
</g>
<g fill="None" fill-opacity="0.0" stroke="#FEFFFE" stroke-opacity="0.43" stroke-width="0.3"><path d="
M 106.00 179.00 
C 102.51 180.47 100.30 184.46 96.00 184.00
C 95.76 184.33 96.00 185.00 96.00 185.00
C 97.27 184.73 98.71 185.21 100.00 185.00
C 100.72 190.40 93.94 192.81 96.26 197.74 C 98.57 202.68 98.88 208.84 106.00 208.00
C 107.32 212.15 103.97 214.79 100.00 214.00
C 102.15 215.26 107.26 216.99 109.00 217.00
C 107.81 216.29 108.13 214.10 108.00 213.00
C 115.14 211.79 119.09 205.19 121.00 199.00
C 129.89 198.50 123.52 207.91 122.00 212.00
C 130.01 207.78 132.02 196.61 127.00 190.00
C 127.81 194.35 125.59 197.13 121.00 196.00
C 120.70 190.45 116.08 184.35 110.00 184.00
C 109.30 181.30 110.80 178.17 114.00 179.00
C 111.30 177.97 110.16 177.25 106.00 179.00 Z"/>
</g>
<g fill="None" fill-opacity="0.0" stroke="#FFFFFF" stroke-opacity="0.80" stroke-width="0.3"><path d="
M 95.00 185.00 
C 95.50 185.01 96.00 185.00 96.00 185.00
C 96.00 185.00 95.76 184.33 96.00 184.00
C 97.08 182.53 101.40 179.48 103.00 179.00
C 100.74 179.12 92.53 182.00 95.00 185.00 Z"/>
</g>
<g fill="None" fill-opacity="0.0" stroke="#FFFFFF" stroke-opacity="0.65" stroke-width="0.3"><path d="
M 96.00 184.00 
C 100.30 184.46 102.51 180.47 106.00 179.00
C 105.06 179.17 103.96 178.95 103.00 179.00
C 101.40 179.48 97.08 182.53 96.00 184.00 Z"/>
</g>
<g fill="None" fill-opacity="0.0" stroke="#000000" stroke-opacity="0.00" stroke-width="0.3"><path d="
M 127.00 190.00 
C 123.14 184.91 120.29 181.40 114.00 179.00
C 110.80 178.17 109.30 181.30 110.00 184.00
C 116.08 184.35 120.70 190.45 121.00 196.00
C 125.59 197.13 127.81 194.35 127.00 190.00 Z"/>
</g>
<g fill="None" fill-opacity="0.0" stroke="#000000" stroke-opacity="0.00" stroke-width="0.3"><path d="
M 100.00 214.00 
C 103.97 214.79 107.32 212.15 106.00 208.00
C 98.88 208.84 98.57 202.68 96.26 197.74 C 93.94 192.81 100.72 190.40 100.00 185.00
C 98.71 185.21 97.27 184.73 96.00 185.00
C 96.00 185.00 95.50 185.01 95.00 185.00
C 89.72 184.93 89.29 197.17 90.74 201.26 C 92.20 205.34 95.42 211.31 100.00 214.00 Z"/>
</g>
<g fill="None" fill-opacity="0.0" stroke="#FFFFFF" stroke-opacity="0.78" stroke-width="0.3"><path d="
M 30.00 200.00 
C 37.21 198.31 45.48 193.56 52.69 198.31 C 59.91 203.05 63.57 208.86 61.00 217.00
C 60.07 219.94 52.69 226.90 53.00 228.00
C 54.44 229.26 55.41 230.03 57.00 231.00
C 55.72 225.50 66.79 224.22 65.00 217.00 C 63.21 209.78 66.80 208.09 60.23 200.77 C 53.67 193.44 36.65 189.80 30.00 200.00 Z"/>
</g>
<g fill="None" fill-opacity="0.0" stroke="#000000" stroke-opacity="0.00" stroke-width="0.3"><path d="
M 181.00 197.00 
C 182.84 198.84 184.37 201.82 187.00 204.00
C 190.29 204.89 195.02 204.03 198.00 203.00
C 198.45 202.85 199.54 202.87 200.00 203.00
C 201.18 200.37 203.27 198.26 204.00 195.00
C 200.15 193.56 197.82 196.05 195.68 197.68 C 193.54 199.30 190.15 199.75 188.23 196.77 C 186.31 193.79 182.43 196.81 181.00 197.00 Z"/>
</g>
<g fill="None" fill-opacity="0.0" stroke="#FEFEFE" stroke-opacity="0.58" stroke-width="0.3"><path d="
M 30.00 200.00 
C 30.00 200.00 29.50 200.02 29.00 200.00
C 28.56 200.89 30.66 201.65 31.00 202.00
C 34.27 202.48 39.24 196.43 44.00 198.00 C 48.76 199.57 53.58 198.58 56.75 203.25 C 59.93 207.92 61.95 211.08 61.00 217.00
C 63.57 208.86 59.91 203.05 52.69 198.31 C 45.48 193.56 37.21 198.31 30.00 200.00 Z"/>
</g>
<g fill="None" fill-opacity="0.0" stroke="#FEFFFE" stroke-opacity="0.40" stroke-width="0.3"><path d="
M 31.00 202.00 
C 33.73 206.19 36.86 210.59 36.00 216.00
C 41.72 219.42 47.76 223.44 53.00 228.00
C 52.69 226.90 60.07 219.94 61.00 217.00
C 61.95 211.08 59.93 207.92 56.75 203.25 C 53.58 198.58 48.76 199.57 44.00 198.00 C 39.24 196.43 34.27 202.48 31.00 202.00 Z"/>
</g>
<g fill="None" fill-opacity="0.0" stroke="#000000" stroke-opacity="0.00" stroke-width="0.3"><path d="
M 109.00 217.00 
C 114.85 217.04 117.70 214.26 122.00 212.00
C 123.52 207.91 129.89 198.50 121.00 199.00
C 119.09 205.19 115.14 211.79 108.00 213.00
C 108.13 214.10 107.81 216.29 109.00 217.00 Z"/>
</g>
<g fill="None" fill-opacity="0.0" stroke="#FFFFFF" stroke-opacity="0.50" stroke-width="0.3"><path d="
M 187.00 204.00 
C 189.37 205.27 195.42 206.08 198.00 204.00
C 198.00 204.00 197.77 203.34 198.00 203.00
C 195.02 204.03 190.29 204.89 187.00 204.00 Z"/>
</g>
<g fill="None" fill-opacity="0.0" stroke="#FFFFFF" stroke-opacity="0.77" stroke-width="0.3"><path d="
M 198.00 204.00 
C 195.42 206.08 189.37 205.27 187.00 204.00
C 187.20 204.16 196.35 209.53 198.00 204.00 Z"/>
</g>
<g fill="None" fill-opacity="0.0" stroke="#FFFFFF" stroke-opacity="0.78" stroke-width="0.3"><path d="
M 170.00 213.00 
C 167.27 214.60 163.74 218.22 162.00 221.00
C 167.52 214.16 175.27 215.36 182.07 214.93 C 188.88 214.49 194.09 228.11 196.00 227.00
C 196.19 214.25 179.84 209.00 170.00 213.00 Z"/>
</g>
<g fill="None" fill-opacity="0.0" stroke="#FEFFFE" stroke-opacity="0.68" stroke-width="0.3"><path d="
M 163.00 246.00 
C 164.33 246.09 165.67 245.93 167.00 246.00
C 159.29 236.72 158.88 220.88 172.00 216.00
C 166.90 216.91 162.64 221.15 161.00 226.00
C 158.50 224.69 161.37 222.47 162.00 221.00
C 163.74 218.22 167.27 214.60 170.00 213.00
C 156.42 218.53 152.03 234.79 163.00 246.00 Z"/>
</g>
<g fill="None" fill-opacity="0.0" stroke="#FFFFFF" stroke-opacity="0.56" stroke-width="0.3"><path d="
M 162.00 221.00 
C 161.37 222.47 158.50 224.69 161.00 226.00
C 162.64 221.15 166.90 216.91 172.00 216.00
C 177.68 214.98 181.97 216.75 186.75 218.25 C 191.52 219.76 190.88 228.61 194.00 229.00
C 195.66 228.20 195.68 228.34 197.00 227.00
C 197.00 227.00 196.37 226.78 196.00 227.00
C 194.09 228.11 188.88 214.49 182.07 214.93 C 175.27 215.36 167.52 214.16 162.00 221.00 Z"/>
</g>
<g fill="None" fill-opacity="0.0" stroke="#FFFFFF" stroke-opacity="0.40" stroke-width="0.3"><path d="
M 163.00 246.00 
C 163.00 246.00 163.04 247.00 163.00 247.00
C 167.91 247.11 173.56 240.25 178.08 242.87 C 182.61 245.49 185.61 238.17 190.00 237.00
C 188.19 234.81 189.45 232.28 190.00 230.00
C 191.66 230.58 192.94 229.51 194.00 229.00
C 190.88 228.61 191.52 219.76 186.75 218.25 C 181.97 216.75 177.68 214.98 172.00 216.00
C 158.88 220.88 159.29 236.72 167.00 246.00
C 165.67 245.93 164.33 246.09 163.00 246.00 Z"/>
</g>
<g fill="#000000" fill-opacity="0.00" stroke="None">
<path d="
M 0.00 250.00 
L 127.00 250.00
C 104.70 241.20 77.79 243.67 57.00 231.00
C 55.41 230.03 54.44 229.26 53.00 228.00
C 47.76 223.44 41.72 219.42 36.00 216.00
C 36.86 210.59 33.73 206.19 31.00 202.00
C 30.66 201.65 28.56 200.89 29.00 200.00
C 21.55 199.67 14.87 181.09 13.00 175.00
C 12.60 173.70 12.42 172.34 12.00 171.00
C 8.70 160.45 -1.91 149.15 7.00 138.00
C 5.99 136.91 4.78 135.41 4.00 134.00
C 2.53 127.98 3.55 117.78 5.00 112.00
C 10.16 91.49 17.89 72.07 35.00 59.00
C 40.55 54.58 40.57 47.64 45.70 43.70 C 50.83 39.76 59.03 40.63 65.00 37.00
C 65.64 36.61 66.40 36.37 67.00 36.00
C 72.47 32.61 93.42 22.81 94.97 33.03 C 96.53 43.24 94.01 58.93 103.25 65.75 C 112.49 72.58 114.11 81.12 126.23 83.77 C 138.35 86.42 142.70 93.87 145.92 105.08 C 149.15 116.28 158.38 118.86 166.75 125.25 C 175.11 131.65 192.16 126.85 194.93 138.07 C 197.69 149.30 206.80 153.81 215.22 158.78 C 223.65 163.74 238.06 166.98 231.22 178.22 C 224.39 189.47 223.38 195.14 217.08 205.08 C 210.78 215.02 204.88 219.02 197.00 227.00
C 195.68 228.34 195.66 228.20 194.00 229.00
C 192.94 229.51 191.66 230.58 190.00 230.00
C 189.45 232.28 188.19 234.81 190.00 237.00
C 185.61 238.17 182.61 245.49 178.08 242.87 C 173.56 240.25 167.91 247.11 163.00 247.00
C 152.55 247.94 141.40 246.64 132.00 250.00
L 250.00 250.00
L 250.00 118.00
C 248.82 118.50 248.19 119.56 247.00 120.00
C 246.56 120.16 246.00 120.00 246.00 120.00
C 244.23 123.37 244.97 126.14 245.99 130.01 C 247.02 133.87 242.54 135.92 242.00 139.00
C 241.78 140.24 242.00 141.74 242.00 143.00
C 241.96 158.05 220.93 155.98 221.00 142.00
C 204.31 139.69 208.86 117.48 215.75 107.75 C 222.65 98.03 247.71 90.48 248.00 108.00
C 248.16 108.39 249.66 108.87 250.00 109.00
L 250.00 0.00
L 208.00 0.00
C 208.17 0.34 208.68 0.80 209.00 1.00
C 216.85 5.86 217.72 9.04 221.00 17.00
C 227.08 31.77 210.12 28.89 200.31 24.69 C 190.49 20.50 193.20 4.49 202.00 0.00
L 0.00 0.00
L 0.00 250.00
M 163.00 1.00 
C 172.70 2.85 180.45 20.19 166.00 21.00 C 151.54 21.81 150.15 -1.45 163.00 1.00
M 111.00 32.00 
C 111.27 31.83 111.79 31.27 112.00 31.00
C 117.79 23.56 120.16 23.01 129.00 21.00
C 130.44 20.67 131.59 20.37 133.00 20.00
C 145.35 16.73 144.76 35.97 147.97 44.03 C 151.19 52.08 140.82 70.27 131.00 68.00
C 128.16 59.18 116.75 63.36 112.70 56.30 C 108.64 49.25 106.62 38.97 111.00 32.00
M 190.00 36.00 
C 201.59 40.23 216.38 46.79 221.00 59.00
C 225.91 71.97 218.64 74.36 206.93 76.93 C 195.21 79.49 196.25 90.52 190.69 98.69 C 185.14 106.87 172.71 106.46 164.77 101.23 C 156.83 96.00 151.39 86.40 159.75 77.75 C 168.12 69.10 164.50 57.18 165.00 45.00 C 165.50 32.82 179.95 32.34 190.00 36.00 Z"/>
</g>
<g fill="#FFFFFF" fill-opacity="0.89" stroke="None">
<path d="
M 221.00 17.00 
C 220.07 16.18 215.56 15.66 214.00 15.00
C 207.23 12.12 205.73 6.97 209.00 2.00
C 208.76 1.68 209.00 1.00 209.00 1.00
C 208.68 0.80 208.17 0.34 208.00 0.00
L 202.00 0.00
C 193.20 4.49 190.49 20.50 200.31 24.69 C 210.12 28.89 227.08 31.77 221.00 17.00 Z"/>
</g>
<g fill="#FEFFFE" fill-opacity="0.87" stroke="None">
<path d="
M 163.00 1.00 
C 150.15 -1.45 151.54 21.81 166.00 21.00 C 180.45 20.19 172.70 2.85 163.00 1.00 Z"/>
</g>
<g fill="#FFFFFF" fill-opacity="0.40" stroke="None">
<path d="
M 209.00 2.00 
C 211.86 5.86 209.06 11.29 214.00 15.00
C 215.56 15.66 220.07 16.18 221.00 17.00
C 217.72 9.04 216.85 5.86 209.00 1.00
C 209.00 1.00 208.76 1.68 209.00 2.00 Z"/>
</g>
<g fill="#FFFFFF" fill-opacity="0.63" stroke="None">
<path d="
M 214.00 15.00 
C 209.06 11.29 211.86 5.86 209.00 2.00
C 205.73 6.97 207.23 12.12 214.00 15.00 Z"/>
</g>
<g fill="#FFFFFF" fill-opacity="0.91" stroke="None">
<path d="
M 133.00 20.00 
C 130.20 21.52 128.29 28.51 125.25 31.25 C 122.20 33.98 113.66 36.33 111.00 32.00
C 106.62 38.97 108.64 49.25 112.70 56.30 C 116.75 63.36 128.16 59.18 131.00 68.00
C 140.82 70.27 151.19 52.08 147.97 44.03 C 144.76 35.97 145.35 16.73 133.00 20.00 Z"/>
</g>
<g fill="#FFFFFF" fill-opacity="0.67" stroke="None">
<path d="
M 129.00 21.00 
C 125.59 22.91 126.70 26.20 123.25 29.25 C 119.79 32.29 116.35 31.39 112.00 31.00
C 111.79 31.27 111.27 31.83 111.00 32.00
C 113.66 36.33 122.20 33.98 125.25 31.25 C 128.29 28.51 130.20 21.52 133.00 20.00
C 131.59 20.37 130.44 20.67 129.00 21.00 Z"/>
</g>
<g fill="#FFFFFF" fill-opacity="0.39" stroke="None">
<path d="
M 112.00 31.00 
C 116.35 31.39 119.79 32.29 123.25 29.25 C 126.70 26.20 125.59 22.91 129.00 21.00
C 120.16 23.01 117.79 23.56 112.00 31.00 Z"/>
</g>
<g fill="#FFFFFF" fill-opacity="0.93" stroke="None">
<path d="
M 67.00 36.00 
C 66.54 36.50 66.40 37.56 66.00 38.00
C 64.27 46.13 67.24 55.43 58.90 59.90 C 50.56 64.37 43.84 65.86 35.00 62.00
C 34.47 60.72 35.97 60.14 36.00 59.00
C 35.55 59.15 35.00 59.00 35.00 59.00
C 17.89 72.07 10.16 91.49 5.00 112.00
C 5.16 116.47 7.63 126.07 6.00 133.00
C 16.31 134.40 23.90 139.04 26.00 150.00 C 28.09 160.97 18.42 168.29 13.00 175.00
C 14.87 181.09 21.55 199.67 29.00 200.00
C 29.50 200.02 30.00 200.00 30.00 200.00
C 36.65 189.80 53.67 193.44 60.23 200.77 C 66.80 208.09 63.21 209.78 65.00 217.00 C 66.79 224.22 55.72 225.50 57.00 231.00
C 77.79 243.67 104.70 241.20 127.00 250.00
L 132.00 250.00
C 141.40 246.64 152.55 247.94 163.00 247.00
C 163.04 247.00 163.00 246.00 163.00 246.00
C 152.03 234.79 156.42 218.53 170.00 213.00
C 179.84 209.00 196.19 214.25 196.00 227.00
C 196.37 226.78 197.00 227.00 197.00 227.00
C 204.88 219.02 210.78 215.02 217.08 205.08 C 223.38 195.14 224.39 189.47 231.22 178.22 C 238.06 166.98 223.65 163.74 215.22 158.78 C 206.80 153.81 197.69 149.30 194.93 138.07 C 192.16 126.85 175.11 131.65 166.75 125.25 C 158.38 118.86 149.15 116.28 145.92 105.08 C 142.70 93.87 138.35 86.42 126.23 83.77 C 114.11 81.12 112.49 72.58 103.25 65.75 C 94.01 58.93 96.53 43.24 94.97 33.03 C 93.42 22.81 72.47 32.61 67.00 36.00
M 77.00 111.00 
C 77.05 111.15 78.00 111.00 78.00 111.00
C 82.44 112.92 79.19 116.77 83.25 119.75 C 87.31 122.73 79.94 127.07 80.00 127.00
C 76.56 134.36 71.64 139.23 63.00 139.00
C 59.53 138.91 51.61 137.46 50.00 136.00
C 43.16 129.79 38.50 120.74 43.00 111.00
C 44.00 108.83 46.70 105.55 48.00 104.00
C 54.40 96.36 73.85 101.36 77.00 111.00
M 130.00 130.00 
C 134.10 132.59 135.96 141.28 135.00 148.00
C 133.51 158.46 115.22 170.99 109.00 159.00
C 98.26 162.11 94.08 146.63 95.00 138.00
C 95.30 133.85 101.93 128.30 105.00 127.00
C 114.92 122.80 121.48 124.62 130.00 130.00
M 212.00 185.00 
C 212.29 188.80 205.94 204.69 200.00 203.00
C 199.54 202.87 198.45 202.85 198.00 203.00
C 197.77 203.34 198.00 204.00 198.00 204.00
C 196.35 209.53 187.20 204.16 187.00 204.00
C 184.37 201.82 182.84 198.84 181.00 197.00
C 177.29 197.48 176.18 193.45 176.00 191.00
C 175.42 183.06 177.20 177.08 183.00 172.00
C 184.19 170.96 184.74 170.80 186.00 170.00
C 190.97 166.87 194.58 167.00 201.00 167.00
C 201.88 167.00 203.15 166.78 204.00 167.00
C 210.86 168.75 211.58 179.48 212.00 185.00
M 114.00 179.00 
C 120.29 181.40 123.14 184.91 127.00 190.00
C 132.02 196.61 130.01 207.78 122.00 212.00
C 117.70 214.26 114.85 217.04 109.00 217.00
C 107.26 216.99 102.15 215.26 100.00 214.00
C 95.42 211.31 92.20 205.34 90.74 201.26 C 89.29 197.17 89.72 184.93 95.00 185.00
C 92.53 182.00 100.74 179.12 103.00 179.00
C 103.96 178.95 105.06 179.17 106.00 179.00
C 110.16 177.25 111.30 177.97 114.00 179.00 Z"/>
</g>
<g fill="#FFFFFF" fill-opacity="0.90" stroke="None">
<path d="
M 221.00 59.00 
C 219.13 55.71 215.82 51.14 212.00 50.00
C 219.28 69.91 196.79 84.92 179.92 74.08 C 163.05 63.24 173.97 36.98 194.00 39.00
C 193.26 37.47 190.23 38.33 190.00 36.00
C 179.95 32.34 165.50 32.82 165.00 45.00 C 164.50 57.18 168.12 69.10 159.75 77.75 C 151.39 86.40 156.83 96.00 164.77 101.23 C 172.71 106.46 185.14 106.87 190.69 98.69 C 196.25 90.52 195.21 79.49 206.93 76.93 C 218.64 74.36 225.91 71.97 221.00 59.00 Z"/>
</g>
<g fill="#FFFFFF" fill-opacity="0.58" stroke="None">
<path d="
M 65.00 37.00 
C 61.53 39.84 63.91 44.31 63.00 48.00
C 63.54 46.98 63.72 40.51 66.00 38.00
C 66.40 37.56 66.54 36.50 67.00 36.00
C 66.40 36.37 65.64 36.61 65.00 37.00 Z"/>
</g>
<g fill="#FFFFFF" fill-opacity="0.72" stroke="None">
<path d="
M 221.00 59.00 
C 216.38 46.79 201.59 40.23 190.00 36.00
C 190.23 38.33 193.26 37.47 194.00 39.00
C 173.97 36.98 163.05 63.24 179.92 74.08 C 196.79 84.92 219.28 69.91 212.00 50.00
C 215.82 51.14 219.13 55.71 221.00 59.00
M 197.00 42.00 
C 219.35 46.24 209.48 82.01 188.00 75.00 C 166.52 67.99 174.15 37.67 197.00 42.00 Z"/>
</g>
<g fill="#FFFFFF" fill-opacity="0.39" stroke="None">
<path d="
M 35.00 59.00 
C 35.00 59.00 35.55 59.15 36.00 59.00
C 40.65 57.45 47.61 61.81 52.68 58.68 C 57.74 55.55 60.34 53.05 63.00 48.00
C 63.91 44.31 61.53 39.84 65.00 37.00
C 59.03 40.63 50.83 39.76 45.70 43.70 C 40.57 47.64 40.55 54.58 35.00 59.00 Z"/>
</g>
<g fill="#FFFFFF" fill-opacity="0.71" stroke="None">
<path d="
M 63.00 48.00 
C 60.34 53.05 57.74 55.55 52.68 58.68 C 47.61 61.81 40.65 57.45 36.00 59.00
C 35.97 60.14 34.47 60.72 35.00 62.00
C 43.84 65.86 50.56 64.37 58.90 59.90 C 67.24 55.43 64.27 46.13 66.00 38.00
C 63.72 40.51 63.54 46.98 63.00 48.00 Z"/>
</g>
<g fill="#FEFFFE" fill-opacity="0.41" stroke="None">
<path d="
M 197.00 42.00 
C 174.15 37.67 166.52 67.99 188.00 75.00 C 209.48 82.01 219.35 46.24 197.00 42.00 Z"/>
</g>
<g fill="#FFFFFF" fill-opacity="0.91" stroke="None">
<path d="
M 242.00 143.00 
C 241.93 142.76 241.11 142.35 241.00 142.00
C 238.10 140.56 235.91 139.53 234.08 136.92 C 232.25 134.30 231.25 130.15 232.93 127.93 C 234.60 125.70 236.59 121.98 238.25 121.25 C 239.90 120.52 247.72 117.76 248.00 118.00
C 248.63 115.05 248.12 111.02 248.00 108.00
C 247.71 90.48 222.65 98.03 215.75 107.75 C 208.86 117.48 204.31 139.69 221.00 142.00
C 220.93 155.98 241.96 158.05 242.00 143.00 Z"/>
</g>
<g fill="#000000" fill-opacity="0.00" stroke="None">
<path d="
M 48.00 104.00 
C 47.84 109.23 59.41 104.69 63.68 107.32 C 67.95 109.96 72.03 116.10 77.00 116.00
C 77.00 114.33 77.00 112.67 77.00 111.00
C 73.85 101.36 54.40 96.36 48.00 104.00 Z"/>
</g>
<g fill="#FEFFFE" fill-opacity="0.40" stroke="None">
<path d="
M 43.00 111.00 
C 43.99 110.42 45.93 111.45 47.00 111.00
C 46.70 116.20 46.63 120.87 48.75 125.25 C 50.88 129.62 55.78 130.63 55.00 136.00
C 53.33 136.00 51.67 136.00 50.00 136.00
C 51.61 137.46 59.53 138.91 63.00 139.00
C 63.83 138.26 62.37 134.97 63.00 134.00
C 72.11 134.80 73.90 123.90 79.00 120.00
C 77.51 117.11 78.29 114.19 78.00 111.00
C 78.00 111.00 77.05 111.15 77.00 111.00
C 77.00 112.67 77.00 114.33 77.00 116.00
C 72.03 116.10 67.95 109.96 63.68 107.32 C 59.41 104.69 47.84 109.23 48.00 104.00
C 46.70 105.55 44.00 108.83 43.00 111.00 Z"/>
</g>
<g fill="#FFFFFF" fill-opacity="0.60" stroke="None">
<path d="
M 248.00 118.00 
C 247.97 118.12 246.98 120.01 247.00 120.00
C 248.19 119.56 248.82 118.50 250.00 118.00
L 250.00 109.00
C 249.66 108.87 248.16 108.39 248.00 108.00
C 248.12 111.02 248.63 115.05 248.00 118.00 Z"/>
</g>
<g fill="#000000" fill-opacity="0.00" stroke="None">
<path d="
M 50.00 136.00 
C 51.67 136.00 53.33 136.00 55.00 136.00
C 55.78 130.63 50.88 129.62 48.75 125.25 C 46.63 120.87 46.70 116.20 47.00 111.00
C 45.93 111.45 43.99 110.42 43.00 111.00
C 38.50 120.74 43.16 129.79 50.00 136.00 Z"/>
</g>
<g fill="#FFFFFF" fill-opacity="0.67" stroke="None">
<path d="
M 79.00 120.00 
C 79.21 120.41 81.63 119.67 82.00 120.00
C 82.10 122.78 82.49 125.56 80.00 127.00
C 79.94 127.07 87.31 122.73 83.25 119.75 C 79.19 116.77 82.44 112.92 78.00 111.00
C 78.29 114.19 77.51 117.11 79.00 120.00 Z"/>
</g>
<g fill="#FFFFFF" fill-opacity="0.70" stroke="None">
<path d="
M 4.00 134.00 
C 6.13 139.24 14.03 136.78 17.70 141.30 C 21.37 145.82 22.90 152.16 21.07 158.07 C 19.24 163.98 11.61 164.69 12.00 171.00
C 12.42 172.34 12.60 173.70 13.00 175.00
C 18.42 168.29 28.09 160.97 26.00 150.00 C 23.90 139.04 16.31 134.40 6.00 133.00
C 7.63 126.07 5.16 116.47 5.00 112.00
C 3.55 117.78 2.53 127.98 4.00 134.00 Z"/>
</g>
<g fill="#FFFFFF" fill-opacity="0.80" stroke="None">
<path d="
M 241.00 142.00 
C 239.68 137.65 233.41 136.14 235.00 130.00 C 236.59 123.86 238.58 123.24 244.00 121.00
C 244.77 120.68 245.16 120.15 246.00 120.00
C 246.00 120.00 246.56 120.16 247.00 120.00
C 246.98 120.01 247.97 118.12 248.00 118.00
C 247.72 117.76 239.90 120.52 238.25 121.25 C 236.59 121.98 234.60 125.70 232.93 127.93 C 231.25 130.15 232.25 134.30 234.08 136.92 C 235.91 139.53 238.10 140.56 241.00 142.00 Z"/>
</g>
<g fill="#000000" fill-opacity="0.00" stroke="None">
<path d="
M 63.00 139.00 
C 71.64 139.23 76.56 134.36 80.00 127.00
C 82.49 125.56 82.10 122.78 82.00 120.00
C 81.63 119.67 79.21 120.41 79.00 120.00
C 73.90 123.90 72.11 134.80 63.00 134.00
C 62.37 134.97 63.83 138.26 63.00 139.00 Z"/>
</g>
<g fill="#FFFFFF" fill-opacity="0.40" stroke="None">
<path d="
M 244.00 121.00 
C 239.65 123.97 238.91 123.93 236.08 129.08 C 233.24 134.22 241.02 136.04 242.00 139.00
C 242.54 135.92 247.02 133.87 245.99 130.01 C 244.97 126.14 244.23 123.37 246.00 120.00
C 245.16 120.15 244.77 120.68 244.00 121.00 Z"/>
</g>
<g fill="#FFFFFF" fill-opacity="0.56" stroke="None">
<path d="
M 241.00 142.00 
C 241.11 142.35 241.93 142.76 242.00 143.00
C 242.00 141.74 241.78 140.24 242.00 139.00
C 241.02 136.04 233.24 134.22 236.08 129.08 C 238.91 123.93 239.65 123.97 244.00 121.00
C 238.58 123.24 236.59 123.86 235.00 130.00 C 233.41 136.14 239.68 137.65 241.00 142.00 Z"/>
</g>
<g fill="#000000" fill-opacity="0.00" stroke="None">
<path d="
M 105.00 127.00 
C 103.95 128.27 104.70 129.88 104.00 131.00
C 104.82 130.87 108.37 133.15 110.00 132.00
C 113.44 126.69 121.98 128.24 125.23 134.77 C 128.48 141.29 136.75 136.68 130.00 130.00
C 121.48 124.62 114.92 122.80 105.00 127.00 Z"/>
</g>
<g fill="#FFFFFF" fill-opacity="0.72" stroke="None">
<path d="
M 95.00 138.00 
C 96.13 135.56 97.44 137.15 99.00 136.00
C 98.72 136.20 104.27 130.58 104.00 131.00
C 104.70 129.88 103.95 128.27 105.00 127.00
C 101.93 128.30 95.30 133.85 95.00 138.00 Z"/>
</g>
<g fill="#FFFFFF" fill-opacity="0.40" stroke="None">
<path d="
M 104.00 131.00 
C 104.27 130.58 98.72 136.20 99.00 136.00
C 97.96 144.15 106.11 152.44 109.00 158.00
C 118.38 160.32 126.73 154.80 130.00 146.00
C 131.53 147.13 133.45 146.91 135.00 148.00
C 135.96 141.28 134.10 132.59 130.00 130.00
C 136.75 136.68 128.48 141.29 125.23 134.77 C 121.98 128.24 113.44 126.69 110.00 132.00
C 108.37 133.15 104.82 130.87 104.00 131.00 Z"/>
</g>
<g fill="#FEFFFE" fill-opacity="0.39" stroke="None">
<path d="
M 12.00 171.00 
C 11.61 164.69 19.24 163.98 21.07 158.07 C 22.90 152.16 21.37 145.82 17.70 141.30 C 14.03 136.78 6.13 139.24 4.00 134.00
C 4.78 135.41 5.99 136.91 7.00 138.00
C -1.91 149.15 8.70 160.45 12.00 171.00 Z"/>
</g>
<g fill="#000000" fill-opacity="0.00" stroke="None">
<path d="
M 95.00 138.00 
C 94.08 146.63 98.26 162.11 109.00 159.00
C 115.22 170.99 133.51 158.46 135.00 148.00
C 133.45 146.91 131.53 147.13 130.00 146.00
C 126.73 154.80 118.38 160.32 109.00 158.00
C 106.11 152.44 97.96 144.15 99.00 136.00
C 97.44 137.15 96.13 135.56 95.00 138.00 Z"/>
</g>
<g fill="#FEFEFE" fill-opacity="0.71" stroke="None">
<path d="
M 186.00 170.00 
C 191.20 168.61 196.47 168.95 201.00 167.00
C 194.58 167.00 190.97 166.87 186.00 170.00 Z"/>
</g>
<g fill="#FEFFFE" fill-opacity="0.41" stroke="None">
<path d="
M 186.00 170.00 
C 184.74 170.80 184.19 170.96 183.00 172.00
C 190.53 168.75 190.77 176.41 185.08 179.08 C 179.40 181.76 187.56 195.54 178.00 194.00
C 178.82 191.99 176.18 192.53 176.00 191.00
C 176.18 193.45 177.29 197.48 181.00 197.00
C 182.43 196.81 186.31 193.79 188.23 196.77 C 190.15 199.75 193.54 199.30 195.68 197.68 C 197.82 196.05 200.15 193.56 204.00 195.00
C 203.27 198.26 201.18 200.37 200.00 203.00
C 205.94 204.69 212.29 188.80 212.00 185.00
C 211.58 188.44 209.08 192.66 205.00 192.00
C 204.08 187.50 208.35 180.14 204.69 176.31 C 201.04 172.47 198.36 170.04 204.00 167.00
C 203.15 166.78 201.88 167.00 201.00 167.00
C 196.47 168.95 191.20 168.61 186.00 170.00 Z"/>
</g>
<g fill="#000000" fill-opacity="0.00" stroke="None">
<path d="
M 212.00 185.00 
C 211.58 179.48 210.86 168.75 204.00 167.00
C 198.36 170.04 201.04 172.47 204.69 176.31 C 208.35 180.14 204.08 187.50 205.00 192.00
C 209.08 192.66 211.58 188.44 212.00 185.00 Z"/>
</g>
<g fill="#000000" fill-opacity="0.00" stroke="None">
<path d="
M 183.00 172.00 
C 177.20 177.08 175.42 183.06 176.00 191.00
C 176.18 192.53 178.82 191.99 178.00 194.00
C 187.56 195.54 179.40 181.76 185.08 179.08 C 190.77 176.41 190.53 168.75 183.00 172.00 Z"/>
</g>
<g fill="#FEFFFE" fill-opacity="0.43" stroke="None">
<path d="
M 106.00 179.00 
C 102.51 180.47 100.30 184.46 96.00 184.00
C 95.76 184.33 96.00 185.00 96.00 185.00
C 97.27 184.73 98.71 185.21 100.00 185.00
C 100.72 190.40 93.94 192.81 96.26 197.74 C 98.57 202.68 98.88 208.84 106.00 208.00
C 107.32 212.15 103.97 214.79 100.00 214.00
C 102.15 215.26 107.26 216.99 109.00 217.00
C 107.81 216.29 108.13 214.10 108.00 213.00
C 115.14 211.79 119.09 205.19 121.00 199.00
C 129.89 198.50 123.52 207.91 122.00 212.00
C 130.01 207.78 132.02 196.61 127.00 190.00
C 127.81 194.35 125.59 197.13 121.00 196.00
C 120.70 190.45 116.08 184.35 110.00 184.00
C 109.30 181.30 110.80 178.17 114.00 179.00
C 111.30 177.97 110.16 177.25 106.00 179.00 Z"/>
</g>
<g fill="#FFFFFF" fill-opacity="0.80" stroke="None">
<path d="
M 95.00 185.00 
C 95.50 185.01 96.00 185.00 96.00 185.00
C 96.00 185.00 95.76 184.33 96.00 184.00
C 97.08 182.53 101.40 179.48 103.00 179.00
C 100.74 179.12 92.53 182.00 95.00 185.00 Z"/>
</g>
<g fill="#FFFFFF" fill-opacity="0.65" stroke="None">
<path d="
M 96.00 184.00 
C 100.30 184.46 102.51 180.47 106.00 179.00
C 105.06 179.17 103.96 178.95 103.00 179.00
C 101.40 179.48 97.08 182.53 96.00 184.00 Z"/>
</g>
<g fill="#000000" fill-opacity="0.00" stroke="None">
<path d="
M 127.00 190.00 
C 123.14 184.91 120.29 181.40 114.00 179.00
C 110.80 178.17 109.30 181.30 110.00 184.00
C 116.08 184.35 120.70 190.45 121.00 196.00
C 125.59 197.13 127.81 194.35 127.00 190.00 Z"/>
</g>
<g fill="#000000" fill-opacity="0.00" stroke="None">
<path d="
M 100.00 214.00 
C 103.97 214.79 107.32 212.15 106.00 208.00
C 98.88 208.84 98.57 202.68 96.26 197.74 C 93.94 192.81 100.72 190.40 100.00 185.00
C 98.71 185.21 97.27 184.73 96.00 185.00
C 96.00 185.00 95.50 185.01 95.00 185.00
C 89.72 184.93 89.29 197.17 90.74 201.26 C 92.20 205.34 95.42 211.31 100.00 214.00 Z"/>
</g>
<g fill="#FFFFFF" fill-opacity="0.78" stroke="None">
<path d="
M 30.00 200.00 
C 37.21 198.31 45.48 193.56 52.69 198.31 C 59.91 203.05 63.57 208.86 61.00 217.00
C 60.07 219.94 52.69 226.90 53.00 228.00
C 54.44 229.26 55.41 230.03 57.00 231.00
C 55.72 225.50 66.79 224.22 65.00 217.00 C 63.21 209.78 66.80 208.09 60.23 200.77 C 53.67 193.44 36.65 189.80 30.00 200.00 Z"/>
</g>
<g fill="#000000" fill-opacity="0.00" stroke="None">
<path d="
M 181.00 197.00 
C 182.84 198.84 184.37 201.82 187.00 204.00
C 190.29 204.89 195.02 204.03 198.00 203.00
C 198.45 202.85 199.54 202.87 200.00 203.00
C 201.18 200.37 203.27 198.26 204.00 195.00
C 200.15 193.56 197.82 196.05 195.68 197.68 C 193.54 199.30 190.15 199.75 188.23 196.77 C 186.31 193.79 182.43 196.81 181.00 197.00 Z"/>
</g>
<g fill="#FEFEFE" fill-opacity="0.58" stroke="None">
<path d="
M 30.00 200.00 
C 30.00 200.00 29.50 200.02 29.00 200.00
C 28.56 200.89 30.66 201.65 31.00 202.00
C 34.27 202.48 39.24 196.43 44.00 198.00 C 48.76 199.57 53.58 198.58 56.75 203.25 C 59.93 207.92 61.95 211.08 61.00 217.00
C 63.57 208.86 59.91 203.05 52.69 198.31 C 45.48 193.56 37.21 198.31 30.00 200.00 Z"/>
</g>
<g fill="#FEFFFE" fill-opacity="0.40" stroke="None">
<path d="
M 31.00 202.00 
C 33.73 206.19 36.86 210.59 36.00 216.00
C 41.72 219.42 47.76 223.44 53.00 228.00
C 52.69 226.90 60.07 219.94 61.00 217.00
C 61.95 211.08 59.93 207.92 56.75 203.25 C 53.58 198.58 48.76 199.57 44.00 198.00 C 39.24 196.43 34.27 202.48 31.00 202.00 Z"/>
</g>
<g fill="#000000" fill-opacity="0.00" stroke="None">
<path d="
M 109.00 217.00 
C 114.85 217.04 117.70 214.26 122.00 212.00
C 123.52 207.91 129.89 198.50 121.00 199.00
C 119.09 205.19 115.14 211.79 108.00 213.00
C 108.13 214.10 107.81 216.29 109.00 217.00 Z"/>
</g>
<g fill="#FFFFFF" fill-opacity="0.50" stroke="None">
<path d="
M 187.00 204.00 
C 189.37 205.27 195.42 206.08 198.00 204.00
C 198.00 204.00 197.77 203.34 198.00 203.00
C 195.02 204.03 190.29 204.89 187.00 204.00 Z"/>
</g>
<g fill="#FFFFFF" fill-opacity="0.77" stroke="None">
<path d="
M 198.00 204.00 
C 195.42 206.08 189.37 205.27 187.00 204.00
C 187.20 204.16 196.35 209.53 198.00 204.00 Z"/>
</g>
<g fill="#FFFFFF" fill-opacity="0.78" stroke="None">
<path d="
M 170.00 213.00 
C 167.27 214.60 163.74 218.22 162.00 221.00
C 167.52 214.16 175.27 215.36 182.07 214.93 C 188.88 214.49 194.09 228.11 196.00 227.00
C 196.19 214.25 179.84 209.00 170.00 213.00 Z"/>
</g>
<g fill="#FEFFFE" fill-opacity="0.68" stroke="None">
<path d="
M 163.00 246.00 
C 164.33 246.09 165.67 245.93 167.00 246.00
C 159.29 236.72 158.88 220.88 172.00 216.00
C 166.90 216.91 162.64 221.15 161.00 226.00
C 158.50 224.69 161.37 222.47 162.00 221.00
C 163.74 218.22 167.27 214.60 170.00 213.00
C 156.42 218.53 152.03 234.79 163.00 246.00 Z"/>
</g>
<g fill="#FFFFFF" fill-opacity="0.56" stroke="None">
<path d="
M 162.00 221.00 
C 161.37 222.47 158.50 224.69 161.00 226.00
C 162.64 221.15 166.90 216.91 172.00 216.00
C 177.68 214.98 181.97 216.75 186.75 218.25 C 191.52 219.76 190.88 228.61 194.00 229.00
C 195.66 228.20 195.68 228.34 197.00 227.00
C 197.00 227.00 196.37 226.78 196.00 227.00
C 194.09 228.11 188.88 214.49 182.07 214.93 C 175.27 215.36 167.52 214.16 162.00 221.00 Z"/>
</g>
<g fill="#FFFFFF" fill-opacity="0.40" stroke="None">
<path d="
M 163.00 246.00 
C 163.00 246.00 163.04 247.00 163.00 247.00
C 167.91 247.11 173.56 240.25 178.08 242.87 C 182.61 245.49 185.61 238.17 190.00 237.00
C 188.19 234.81 189.45 232.28 190.00 230.00
C 191.66 230.58 192.94 229.51 194.00 229.00
C 190.88 228.61 191.52 219.76 186.75 218.25 C 181.97 216.75 177.68 214.98 172.00 216.00
C 158.88 220.88 159.29 236.72 167.00 246.00
C 165.67 245.93 164.33 246.09 163.00 246.00 Z"/>
</g>
</svg>